<svg preserveAspectRatio="xMidYMid meet" data-bbox="0.965 1 99.395 99.311" xmlns="http://www.w3.org/2000/svg" viewBox="0 0 102 102" height="102" width="102" data-type="ugc" role="presentation" aria-hidden="true" aria-labelledby="svgcid-9u0b2abmyla3"><title id="svgcid-9u0b2abmyla3"></title>
    <g>
        <g clip-path="url(#svgcid--jejuo0-nof7s7)">
            <path stroke-miterlimit="10" stroke-width="2" stroke="#ffffff" d="M46.79 1h7.73c.483.16.978.285 1.48.37A49.68 49.68 0 0 1 98.82 38.7c.61 2.43 1 4.91 1.54 7.36v9.33a10.78 10.78 0 0 0-.39 1.48 45.51 45.51 0 0 1-6.17 18.44c-9.84 16.27-24.28 24.93-43.41 25-26.14.12-48-20.83-49.36-46.92A49.73 49.73 0 0 1 37.3 2.95c3.13-.87 6.34-1.31 9.49-1.95Zm6.67 62.65c4.07 5.19 9.3 7.05 15.55 5.86 5.54-1.06 9.72-4 11.17-9.75 1.63-6.4-1.28-11.48-5.36-16.58-.2 2.06-.29 3.66-.52 5.23-.69 4.68-2.4 8.71-6.92 11a6.47 6.47 0 0 1-6.48.07c-1.58-.88-3.1-1.88-4.69-2.73a6.6 6.6 0 0 0-6.51-.06c-1.48.79-2.85 1.77-4.29 2.64a9.06 9.06 0 0 1-11.48-1.71 14.89 14.89 0 0 1-3.81-8.74c-.21-2.19 0-4.42 0-6.64L29.5 42a76.782 76.782 0 0 0-4.81 7.8c-4.55 9.67 1.48 19.66 12.18 20.42a14.54 14.54 0 0 0 13.43-6.24c-1 6.39-1.2 13-6.19 18h15.57c-5.31-5.12-5.35-11.9-6.22-18.33Zm19.36-22.57c-6.39-7.35-15.09-11.92-21-19.26-5.11 6.58-12.63 10.56-18.63 17 1.67 1.43 3.07 3.1 4.86 4.08 8 4.4 16.59 6 25.63 4a14.37 14.37 0 0 0 9.14-5.82Zm-37.3 5c-.29 4.31 1.6 8.08 4.35 8.87 2.18.64 5.52-1 6.68-3.3-5.42-1.24-7.03-2.06-11.03-5.57Zm23 5.83c1.67 2.91 4.52 4.44 6.78 3.7 2.44-.81 4.65-4.71 4.3-7.81-3.22 2.86-7.15 3.52-11.08 4.12v-.01Z" fill="none"></path>
            <path stroke-miterlimit="10" stroke-width="2" stroke="#ffffff" d="M53.46 63.65c.87 6.44.91 13.21 6.18 18.35H44.07c5-5 5.24-11.61 6.19-18a14.54 14.54 0 0 1-13.43 6.24c-10.7-.76-16.73-10.75-12.18-20.42a76.782 76.782 0 0 1 4.81-7.8l.62.24c0 2.22-.17 4.45 0 6.64a14.89 14.89 0 0 0 3.81 8.74 9.06 9.06 0 0 0 11.48 1.71c1.44-.87 2.81-1.85 4.29-2.64a6.6 6.6 0 0 1 6.51.06c1.59.85 3.11 1.85 4.69 2.73a6.47 6.47 0 0 0 6.48-.07c4.52-2.31 6.23-6.34 6.92-11 .23-1.57.32-3.17.52-5.23 4.08 5.1 7 10.18 5.36 16.58-1.45 5.71-5.63 8.69-11.17 9.75-6.21 1.17-11.45-.69-15.51-5.88Z" fill="none"></path>
            <path stroke-miterlimit="10" stroke-width="2" stroke="#ffffff" d="M72.82 41.08a14.37 14.37 0 0 1-9.17 5.76c-9 2.05-17.6.43-25.63-4-1.79-1-3.19-2.65-4.86-4.08 6-6.41 13.52-10.39 18.63-17 5.94 7.32 14.64 11.92 21.03 19.32Z" fill="none"></path>
            <path stroke-miterlimit="10" stroke-width="2" stroke="#ffffff" d="M35.52 46.08c4 3.5 5.62 4.32 11 5.57-1.16 2.29-4.5 3.94-6.68 3.3-2.73-.78-4.62-4.55-4.32-8.87Z" fill="none"></path>
            <path stroke-miterlimit="10" stroke-width="2" stroke="#ffffff" d="M58.52 51.92c4-.6 7.9-1.26 11.08-4.11.35 3.1-1.86 7-4.3 7.81-2.3.74-5.15-.79-6.78-3.7Z" fill="none"></path>
        </g>
        <defs fill="none">
            <clipPath id="svgcid--jejuo0-nof7s7">
                <path fill="#ffffff" d="M101.4 0v101.33H0V0h101.4z"></path>
            </clipPath>
        </defs>
    </g>
</svg>