<svg preserveAspectRatio="xMidYMid meet" data-bbox="0 -0.004 111.191 92.585" xmlns="http://www.w3.org/2000/svg" viewBox="0 -0.004 111.191 92.585" height="93" width="112" data-type="color" role="presentation" aria-hidden="true" aria-labelledby="svgcid--h1hs1c4l8jge" style=""><defs><style>#comp-l09vfal0__item-l09vdhlv svg [data-color="1"] {fill: #FFFFFF;}</style></defs><title id="svgcid--h1hs1c4l8jge"></title>
    <g>
        <g clip-path="url(#svgcid--ko6bn0c6uxfw)">
            <path fill="#ffffff" d="M10.95 75.52H5.73a5.381 5.381 0 0 1-5.72-5.69v-19a5.36 5.36 0 0 1 5.68-5.63h5.27v-1.37a31.07 31.07 0 0 1 .54-5.75 11.62 11.62 0 0 1 11.34-8.51h30.2V18.04a9.33 9.33 0 0 1-5.83-5.13 8.87 8.87 0 0 1-.52-5.92 9.15 9.15 0 0 1 17.82.15c1.08 4.61-1 8.24-6.43 11v11.44h30a11.86 11.86 0 0 1 12.12 12.16v3.47c1.76 0 3.43.09 5.09 0a5.558 5.558 0 0 1 5.89 5.9c-.09 6.18 0 12.37 0 18.56 0 3.67-2.21 5.86-5.89 5.87h-5.09v2.35a33.537 33.537 0 0 1-.39 5.6 11.68 11.68 0 0 1-11.44 9.09H22.79a11.88 11.88 0 0 1-11.84-12c-.01-1.65 0-3.26 0-5.06ZM55.49 87.6h32.49a6.999 6.999 0 0 0 7.32-7.28V41.81a6.998 6.998 0 0 0-7.32-7.27H23.22a7 7 0 0 0-7.33 7.36v38.24c0 4.57 2.9 7.49 7.46 7.49l32.14-.03ZM4.96 60.32v9.35c0 .6.15.91.83.9h4.41c.57 0 .76-.23.76-.77V50.92c0-.6-.24-.82-.83-.81H5.98c-.82 0-1 .26-1 1 0 3.11-.02 6.21-.02 9.21Zm101.24 0v-9.27c0-.71-.22-1-.95-1h-4.24c-.59 0-.82.22-.82.81v18.79c0 .63.21.88.86.87h4.15c.75 0 1-.22 1-1-.02-3 0-6.09 0-9.2ZM59.78 9.23a4.2 4.2 0 1 0-4.2 4.18 4.19 4.19 0 0 0 4.2-4.18Z" data-color="1"></path>
            <path fill="#ffffff" d="M38.21 63.52a9.16 9.16 0 1 1 9.2-9.12 9.17 9.17 0 0 1-9.2 9.12Zm4.22-9.14a4.21 4.21 0 1 0-8.42.001 4.21 4.21 0 0 0 8.42 0Z" data-color="1"></path>
            <path fill="#ffffff" d="M72.91 63.52a9.16 9.16 0 1 1 9.18-9.13 9.18 9.18 0 0 1-9.18 9.13Zm-4.18-9.15a4.21 4.21 0 1 0 8.42-.06 4.21 4.21 0 0 0-8.42.06Z" data-color="1"></path>
            <path fill="#ffffff" d="M55.61 80.83a35.55 35.55 0 0 1-11.77-2.27 2.59 2.59 0 0 1-1.84-3 2.11 2.11 0 0 1 3.07-1.84 27.2 27.2 0 0 0 13.23 1.85 58.181 58.181 0 0 0 7.55-1.76c1.59-.43 2.56-.2 3.1 1.08a2.53 2.53 0 0 1-1.38 3.52c-2.18.738-4.4 1.352-6.65 1.84-1.72.36-3.53.39-5.31.58Z" data-color="1"></path>
        </g>
        <defs fill="none">
            <clipPath id="svgcid--ko6bn0c6uxfw">
                <path fill="#ffffff" d="M111.18 0v92.57H0V0h111.18z"></path>
            </clipPath>
        </defs>
    </g>
</svg>