<svg preserveAspectRatio="xMidYMid meet" data-bbox="0 0 172 172" xmlns="http://www.w3.org/2000/svg" viewBox="0 0 172 172" height="172" width="172" data-type="color" role="presentation" aria-hidden="true" aria-labelledby="svgcid--fsilvnn6lzna" style=""><title id="svgcid--fsilvnn6lzna"></title>
    <g>
        <path fill="#FFAA77" d="M86 172c47.496 0 86-38.503 86-86S133.496 0 86 0 0 38.503 0 86s38.504 86 86 86Zm0-37c27.062 0 49-21.938 49-49s-21.938-49-49-49-49 21.938-49 49 21.938 49 49 49Z" clip-rule="evenodd" fill-rule="evenodd" data-color="1" style=""></path>
        <path fill="#FF8777" d="M86 135c27.062 0 49-21.938 49-49 0-3.554-.378-7.02-1.097-10.358l36.154-7.818a85.996 85.996 0 0 1-43.082 93.788 86.006 86.006 0 0 1-102.097-15.114l26.296-26.028C60.055 129.442 72.38 135 86 135Z" clip-rule="evenodd" fill-rule="evenodd" data-color="2" style=""></path>
        <path fill="#68E1E1" d="M140.039 19.098A86.002 86.002 0 0 0 86 0v37c23.526 0 43.179 16.58 47.914 38.691l36.162-7.78a86.003 86.003 0 0 0-30.037-48.813Z" clip-rule="evenodd" fill-rule="evenodd" data-color="3" style=""></path>
    </g>
</svg>