<svg preserveAspectRatio="xMidYMid meet" data-bbox="0.01 0.57 163.943 166.83" xmlns="http://www.w3.org/2000/svg" viewBox="0.01 0.57 163.943 166.83" height="168" width="164" data-type="color" role="presentation" aria-hidden="true" aria-labelledby="svgcid-ybeymq4ukrq9"><title id="svgcid-ybeymq4ukrq9"></title>
    <g>
        <path fill="#ffffff" d="M163.94 111.88v43.49c0 8.19-3.75 12-11.81 12-28.52.04-57.037.04-85.55 0-8 0-11.69-3.84-11.77-12.06 0-4-.18-8 0-12 .2-3.61-1-5.25-4.78-5-3.478.18-6.963.18-10.44 0-6.57-.2-10.47-4.07-10.66-10.63-.13-4.49-.25-9 0-13.49.25-4.05-1.44-5.32-5.23-5.11-3.79.21-7.63.14-11.44 0C4.12 108.82.05 104.7.04 96.6c-.04-28-.04-56 0-84 0-8.19 3.74-12 11.85-12C39.41.56 66.933.56 94.46.6c7.67 0 11.63 3.63 12.22 11.4.34 4.48.2 9 .16 13.49 0 2.92 1.16 4.28 4.15 4.21 4-.11 8-.06 11.94 0 8.56.14 12.7 4.32 12.89 13 .07 3 .1 6 0 9s1.25 4.26 4.17 4.21c3.65-.06 7.3-.08 10.94 0 9.16.32 12.93 4.22 13 13.3.026 14.28.03 28.503.01 42.67Zm-6.68-.05v-41c0-6.47-1-7.46-7.58-7.46h-80.6c-6.72 0-7.61.94-7.61 7.93v81.5c0 6.71 1.16 7.88 7.8 7.89h80.09c6.59 0 7.88-1.27 7.9-7.86.03-13.67 0-27.33 0-41ZM6.73 54.55v39.48c0 6.78.94 7.67 7.84 7.71 2.82 0 5.66-.23 8.45 0 4.49.46 6.06-1.1 6-5.83-.27-17-.11-34-.11-51 0-12.18 3-15.18 15.38-15.18 16.74 0 33.49-.1 50.23.06 3.89 0 5.42-1.24 5.13-5.18-.25-3.48 0-7-.06-10.49-.09-5.57-1.21-6.77-6.77-6.78-26.354-.04-52.707-.04-79.06 0-5.65 0-7 1.4-7 7.15-.06 13.4-.03 26.73-.03 40.06Zm28.85 29.5v33.5c0 13.71 0 13.52 13.51 13.59 4.77 0 5.82-1.8 5.78-6.2-.2-18-.09-36-.09-54 0-11.33 3.48-14.85 14.89-14.89 15.59 0 31.18.07 46.76 0 14-.1 12 2 12.06-12.19 0-5.82-.79-6.62-6.68-6.62-26.527-.04-53.06-.04-79.6 0-5.59 0-6.59 1.06-6.61 6.84-.05 13.3-.01 26.64-.02 39.97Z" data-color="1"></path>
    </g>
</svg>