<svg preserveAspectRatio="xMidYMid meet" data-bbox="0.138 0.911 148.144 148.48" xmlns="http://www.w3.org/2000/svg" viewBox="0.138 0.911 148.144 148.48" height="150" width="149" data-type="color" role="presentation" aria-hidden="true" aria-labelledby="svgcid--8yc37mjbyxnc"><title id="svgcid--8yc37mjbyxnc"></title>
    <g>
        <path fill="#ffffff" d="M87.36 97.05c.07 9.07-2.81 17.13-9 23.67-8.85 9.28-18.12 18.17-27 27.4-2.56 2.65-3.62.56-5.09-.89-1.47-1.45-3.54-2.55-.92-5.09 8.25-8 16.33-16.19 24.42-24.35 12.36-12.44 12.7-27.27 1-40.43-13.52-15.21-13.16-35.3 1-49.93 8.12-8.37 16.58-16.42 24.65-24.83 2.42-2.53 3.69-2 5.87.15s2.65 3.44.15 5.84c-8.18 7.84-16.13 15.92-24.09 24-11.88 12-12.33 27.08-1 39.66 6.37 7.13 10.05 15.18 10.01 24.8Z" data-color="1"></path>
        <path fill="#ffffff" d="M52.29 70.05a27.49 27.49 0 0 0-20 8.55c-8.08 8.13-16.31 16.12-24.25 24.38-2.47 2.58-3.83 2.34-6.26-.05-2.43-2.39-2-3.75.22-5.89 8.33-8.11 16.47-16.41 24.73-24.61 7.59-7.55 16.72-11.25 27.46-10.53 1.73.11 4.92-1.11 4.14 2.9-.51 2.61.09 6.14-4.51 5.26a8.232 8.232 0 0 0-1.53-.01Z" data-color="1"></path>
        <path fill="#ffffff" d="M96.82 88.26c-7.07.07-7.41-.4-5.9-6.11.52-2 1.4-2.3 3.1-2.19 9.9.67 17.56-3.56 24.22-10.57 7.22-7.59 14.87-14.76 22.12-22.32 2.38-2.49 3.77-2.57 6.2 0 2.23 2.32 2.36 3.58 0 5.88-8.49 8.2-16.71 16.68-25.12 25a34.463 34.463 0 0 1-24.62 10.31Z" data-color="1"></path>
        <path fill="#ffffff" d="M140.51 41.6a47.799 47.799 0 0 1-5.37 4.64c-1.48.95-2.21-.91-3-1.72-9.32-9.23-18.52-18.6-27.93-27.75-2.58-2.5-.66-3.61.87-5 1.53-1.39 2.39-3.82 5-1.1 9.4 9.63 19 19.07 28.5 28.59.53.57 1.03 1.23 1.93 2.34Z" data-color="1"></path>
        <path fill="#ffffff" d="M46.16 135.79a49.633 49.633 0 0 1-5.24 4.7c-1.53 1-2.28-.86-3.11-1.68-9.21-9.12-18.25-18.41-27.58-27.39-2.64-2.54-1.23-3.73.55-5.46s2.78-3.37 5.4-.65c9.09 9.46 18.49 18.63 27.76 27.91.69.7 1.29 1.49 2.22 2.57Z" data-color="1"></path>
        <path fill="#ffffff" d="M100.72 27.17a3.648 3.648 0 0 1 3.64 1.48c7.41 7.37 14.69 14.87 22.23 22.11 2.95 2.84.14 3.81-1.14 5.44-1.6 2-2.93 2.57-5.09.32-7-7.29-14.28-14.34-21.38-21.54-.91-.93-3-1.66-1.69-3.54a51.643 51.643 0 0 1 3.43-4.27Z" data-color="1"></path>
        <path fill="#ffffff" d="M25.22 91.23c1.21 1.05 2 1.65 2.69 2.35 7.31 7.27 14.5 14.66 21.94 21.79 2.35 2.24 1.47 3.49-.42 5-1.62 1.34-2.63 4.07-5.46 1.13-7.25-7.55-14.77-14.85-22.15-22.29-.73-.73-2.29-1.44-1.27-2.8 1.38-1.79 3.06-3.36 4.67-5.18Z" data-color="1"></path>
        <path fill="#ffffff" d="M95.25 44.82c2.09-.17 2.59.85 3.25 1.5 5.44 5.39 10.72 10.94 16.3 16.17 3 2.78.26 3.82-1.08 5.46-1.6 2-2.93 2.68-5.11.36-5-5.34-10.33-10.38-15.45-15.61-.92-.95-3-1.74-1.72-3.57a39.193 39.193 0 0 1 3.81-4.31Z" data-color="1"></path>
        <path fill="#ffffff" d="M37.63 79.95c.62.55 1.27 1.07 1.85 1.65 5.4 5.39 10.68 10.92 16.24 16.13 2.82 2.65.65 3.82-.87 5.52-1.52 1.7-3 2.72-5.17.4-5.12-5.43-10.53-10.59-15.76-15.91-.93-.94-2.88-1.85-1.2-3.58 1.47-1.52 2.66-3.42 4.91-4.21Z" data-color="1"></path>
    </g>
</svg>