<svg preserveAspectRatio="xMidYMid meet" data-bbox="0.9 0.44 254.94 194.67" xmlns="http://www.w3.org/2000/svg" viewBox="0.9 0.44 254.94 194.67" height="196" width="256" data-type="color" role="presentation" aria-hidden="true" aria-labelledby="svgcid--v9sm7y-qm6jx0"><title id="svgcid--v9sm7y-qm6jx0"></title>
    <g>
        <path fill="#ffffff" d="M255.84 35.58c-2.64 11.76-5.47 23.49-7.84 35.31-1 4.81-3.14 6.71-8.06 6.52-7.13-.28-14.28.22-21.41-.07-3.95-.16-5 1.08-5 5 .15 29.67.08 59.35.08 89 0 5.8-.08 11.61 0 17.41.07 4.25-1.45 6.32-6.11 6.3-30.05-.12-60.09-.18-90.13.06-5.06 0-3.94-3-4.25-5.75-.48-4.12 2.7-2.52 4.36-2.52 27.55-.1 55.11-.15 82.66 0 3.83 0 5-.87 5-4.87-.17-35-.1-70-.09-105 0-7.19.52-7.68 7.58-7.73 7.8-.06 15.6-.27 23.4-.19 2.66 0 3.81-.92 4.32-3.46 1.76-8.75 3.54-17.51 5.63-26.19.62-2.61-.19-3.45-2.4-4.34-19.48-7.87-39-15.76-58.35-23.84-3.88-1.62-3.61.88-4.07 3.13-3.22 15.76-15.2 27.53-30.61 30.12-17.86 3-33.84-3.55-42.37-17.35a33.35 33.35 0 0 1-4.83-12.91c-.38-2.67-.88-3.76-4-2.47-19.4 8.09-38.87 16-58.33 23.91-2.1.85-3.16 1.72-2.44 4.34 2.29 8.46 4.36 17 6.37 25.51.56 2.39 1.85 3.11 4.13 3.19 8.29.3 16.58.84 24.87 1.07 4.72.12 7.14 1.9 6.62 6.93-.2 2.483-.2 4.977 0 7.46.18 3 0 4.93-4 4.87-3.73 0-4.75-1.51-4.18-4.7.95-5.3-1.44-6.83-6.46-6.81-7.29.05-14.58-.65-21.88-.82-3.3-.08-5.18-1.27-6-4.6-2.86-11.9-5.84-23.76-8.85-35.61-.8-3.15.28-5.07 3.21-6.27C56.14 20.5 79.85 10.73 103.62 1.1c1.76-.71 3.91-.59 5.88-.6 22.58 0 45.15 0 67.73-.06 2.312-.01 4.603.439 6.74 1.32 22.06 9.007 44.133 17.987 66.22 26.94 2.15.87 4.33 1.71 5.62 3.84l.03 3.04ZM142.62 8.76c-8.94 0-17.89.27-26.81-.11-4.87-.2-4.95 1.88-4 5.5 3.55 13.84 15.55 22.94 30.41 22.95 14.86.01 27.65-9.65 30.73-23.27.78-3.44.6-5.39-4-5.18-8.78.4-17.56.11-26.33.11Z" data-color="1"></path>
        <path fill="#ffffff" d="M17.54 112.59c-8.11 23.61-5.71 48.13-8.88 72-.38 2.86.59 3.31 3.12 3.3 23.73-.07 47.47-.11 71.2 0 3.24 0 3.85-1 3.6-4-1.77-20.47-3.39-40.95-5.05-61.42-.08-1 .15-2.53-.94-2.56-5.39-.16-3.09-4.8-5.07-7.71 2.76 0 4.89-.09 7 0 3.7.19 5.7 2.11 6 5.91 1.647 21.3 3.337 42.6 5.07 63.9.18 2.31.54 4.61.66 6.93.21 3.83-1.6 6-5.53 6H6.55c-4.25 0-5.94-2.39-5.61-6.41 1.92-23.453 3.853-46.897 5.8-70.33.46-5.21 3.08-6.56 10.8-5.61Z" data-color="1"></path>
        <path fill="#ffffff" d="M115.11 103.49a27.256 27.256 0 0 1 27.377-27.648 27.258 27.258 0 0 1 27.133 27.888 27.274 27.274 0 0 1-7.887 19.569 27.264 27.264 0 0 1-38.909-.172 27.262 27.262 0 0 1-7.714-19.637Zm27.11 19.62a19.494 19.494 0 0 0 17.942-12.071 19.485 19.485 0 0 0-14.206-26.532 19.493 19.493 0 0 0-19.993 8.242 19.487 19.487 0 0 0-3.313 10.801 19.647 19.647 0 0 0 19.54 19.56h.03Z" data-color="1"></path>
        <path fill="#ffffff" d="M47.97 90.67c-9.11 0-16.66 6.14-18 14.08-.48 2.83-1 5.64 2.26 7.86 2.32 1.61 2.06 4.42.11 6.59-1.71 1.89-3.74 2.55-6.22 1.17-2.72-1.51-3.49-4.24-2.16-6.31 1.81-2.82 1.48-5.64 1.71-8.54.79-10.24 10.08-18.78 20.76-19.07 11.07-.31 20.55 8.13 21.89 19.59.32 2.75.13 5.4 1.94 8 1.38 2 .4 4.43-1.8 6-2.2 1.57-4.09 1.18-5.9-.32-2-1.66-3.11-4.31-1.25-6.1 3.85-3.69 3.14-7.59 1.65-11.71a16 16 0 0 0-9.77-10 37.63 37.63 0 0 0-5.22-1.24Z" data-color="1"></path>
        <path fill="#ffffff" d="M142.42 154.05H126c-2.95 0-5.49-.76-5.59-4.19-.12-3.72 2.55-4.64 5.69-4.64h32.83c3.16 0 6 .93 5.91 4.49-.09 3.56-2.83 4.41-6 4.37-5.48-.11-10.95-.03-16.42-.03Z" data-color="1"></path>
        <path fill="#ffffff" d="M62.8 147.57a15.223 15.223 0 0 1-9.196 14.468 15.211 15.211 0 0 1-20.14-8.308 15.22 15.22 0 0 1-1.094-5.93 15.478 15.478 0 0 1 15.4-15.52c8.12-.06 14.95 6.89 15.03 15.29Zm-26 0a10.841 10.841 0 1 0 21.682.191 10.841 10.841 0 0 0-21.682-.191Z" data-color="1"></path>
        <path fill="#ffffff" d="M47.72 170.9h8.41c1.75 0 3.54.17 3.64 2.36.1 2.19-1.62 2.57-3.41 2.57H38.55c-1.72 0-3.13-.61-3.16-2.36 0-2.06 1.53-2.64 3.42-2.6 2.97.07 5.94.02 8.91.03Z" data-color="1"></path>
        <path fill="#ffffff" d="M54.69 112.4c-1.39 7.27-1.41 6.84-10.53 7.28-6.53.32-3.66-4.58-5.44-7.28h15.97Z" data-color="1"></path>
    </g>
</svg>