<svg preserveAspectRatio="xMidYMid meet" data-bbox="0.228 0.972 286.918 260.078" xmlns="http://www.w3.org/2000/svg" viewBox="0.228 0.972 286.918 260.078" height="262" width="288" data-type="color" role="presentation" aria-hidden="true" aria-labelledby="svgcid--xrtj4vmefm43"><title id="svgcid--xrtj4vmefm43"></title>
    <g>
        <path fill="#ffffff" d="M170.86 20.4c.09-7.86 3-13.73 9.75-17.12 6.75-3.39 13.63-3.26 19.12 1.83 14.73 13.66 29 27.79 42.55 42.66 5 5.46 4.93 12.62 1.27 19.15-3.66 6.53-9.56 9.77-17 9.11a7.063 7.063 0 0 0-6.47 2.36c-5.91 6.07-11.81 12.16-18 17.94-2.45 2.3-1.31 3.31.45 5s2.69 3.42 5.38.73c6.74-6.76 7-6.57 13.72.12 12 12 24 23.9 35.87 35.93 2 2 4.76 3.24 6.09 6.12.75 1.65 2.3 1.46 4.12.45 6.19-3.46 13-2 16.9 3.28 3.9 5.28 3.25 12.31-1.59 17.23a2073.625 2073.625 0 0 1-23.57 23.61c-3.69 3.63-8.11 5-13.25 3.37-4.87-1.58-7.4-5.09-9-9.81-1.11-3.33 1.2-5.66 1.84-8.39.64-2.73.25-4-1.59-5.85-14.16-14-28.247-28.077-42.26-42.23-4.93-4.95-4.9-6.46.11-11.36 1.91-1.87 4-3.11.9-6.18s-4.48-1.76-6.68.53a601.039 601.039 0 0 1-15.11 15.19c-1.69 1.63-2 2.68-.47 4.83 7.24 10.1 5.35 21.6-4.65 30-8.61 7.25-20.59 6.65-28.85-1.57a20508.583 20508.583 0 0 1-51.48-51.42c-7.19-7.21-8.85-17.24-4.43-25.6 4.71-8.89 14.57-13.87 24.16-12.05 1.924.47 3.8 1.122 5.6 1.95 2.48 1 3.87 4.94 6.9 3.69 2.28-.94 3.88-3.53 5.76-5.41 13.74-13.72 27.486-27.443 41.24-41.17 2.16-2.09 4.21-4.05 2.67-6.92Zm-6.47 99.83c1.66-1.44 2.29-1.93 2.86-2.5 14.9-14.87 29.77-29.78 44.74-44.58 2.06-2 1.26-3.25-.35-4.86a5321.566 5321.566 0 0 1-33-33.09c-1.79-1.81-2.82-2-4.71-.12a6955.958 6955.958 0 0 1-44.29 44.31c-1.74 1.72-1.9 2.8 0 4.63a3370.704 3370.704 0 0 1 33.44 33.39c.579.867 1.02 1.818 1.31 2.82Zm-8.77 34c4.81.08 10.47-3.82 12.35-8.6 2.07-5.26.29-9.47-3.52-13.27-17-16.92-33.91-33.93-50.91-50.86-5.65-5.63-11.93-5.65-17.5-.27-5.79 5.59-5.94 11.94-.09 17.83 17.06 17.18 34.166 34.303 51.32 51.37a11.495 11.495 0 0 0 3.779 2.773 11.49 11.49 0 0 0 4.571 1.037v-.01Zm122 1a3.358 3.358 0 0 0-2.32-2.77c-1.88-.69-3.1.56-4.35 1.68-5.09 4.53-6.19 4.58-11-.22-12.37-12.28-24.66-24.65-37-36.95-2.69-2.68-5.54-7.27-8.27-7.24-2.73.03-5.35 4.9-8.33 7.23-3.21 2.5-2.4 4.09.13 6.58 14.31 14.09 28.47 28.33 42.65 42.56 4.09 4.1 4 6.43 0 10-1.89 1.67-3.35 3.71-1.19 5.93 1.89 1.95 3.87.89 5.58-.83 7.45-7.49 14.93-14.93 22.4-22.41.522-.425.944-.96 1.237-1.566a4.595 4.595 0 0 0 .453-1.944l.01-.05Zm-41.51-97.86a7.208 7.208 0 0 0-2.44-5.22c-13-13-26-26-39.13-38.87-3.67-3.59-8.24-3.39-11.56-.13-3.32 3.26-3.78 8-.27 11.59 13.08 13.38 26.35 26.58 39.66 39.75 2.62 2.6 6 2.66 9.25 1.11s4.56-4.21 4.49-8.23Z" data-color="1"></path>
        <path fill="#ffffff" d="M113.47 261.05H36.2c-9.67 0-9.95-.15-9.77-9.67.15-8.27-1.18-16.64 1.14-24.79 3.15-11 10.21-18.7 21.22-21.77 5.33-1.49 6.87-3.67 6.6-9.1-.56-11.52 5.68-20.17 15.7-23.2a28.868 28.868 0 0 1 8.38-1c22.1 0 44.21.45 66.29-.15 16.84-.45 27.16 11.12 26 26.16-.33 4.25 1 5.8 5.36 6.84 13.63 3.28 23 15.88 23.4 30.48.16 6.48 0 13 0 19.44-.05 5.53-1.17 6.67-6.79 6.67h-80.25l-.01.09Zm76.29-31.19c-1.37-9.08-9.72-17-19.2-17-37.88-.193-75.763-.193-113.65 0-9.79.05-17.7 7.16-20.13 16.9-1.83 5.35-.49 10.9-1 16.31-.44 4.35 1 5.64 5.49 5.62 48-.16 96-.1 144-.1 1.16 0 2.32 0 3.48-.07 1.16-.07 2.25-.41 2.18-1.56-.38-6.71 1.53-13.55-1.17-20.1Zm-76.42-26.81c14.79 0 29.57 0 44.36-.06 1.53 0 3.71 1.12 4.48-1.68 3-11.05-3.81-20.19-15.3-20.2H82.09c-13.29 0-17.45 4.34-17.53 17.61 0 3.52 1 4.43 4.43 4.38 14.78-.19 29.57-.05 44.35-.05Z" data-color="1"></path>
        <path fill="#ffffff" d="M8.19 185.96c-3.4.3-5.9-1.37-7-4.8-1.32-4.29.47-7.5 4.22-9.59 6.52-3.64 13.1-7.18 19.67-10.72 9.78-5.28 19.566-10.543 29.36-15.79 3.06-1.64 6.23-2.64 9.37-.45A7.632 7.632 0 0 1 66 155.137a7.627 7.627 0 0 1-2.921 2.633c-16.56 9.12-33.25 18-49.88 27a9.855 9.855 0 0 1-5.01 1.19Z" data-color="1"></path>
        <path fill="#ffffff" d="m7.7 101.23 15.82 4.86c13.14 4.06 26.28 8.137 39.42 12.23a12.762 12.762 0 0 1 4.91 2.29c2.5 2.35 3.26 5.43 1.51 8.61a6.562 6.562 0 0 1-8 3.49c-8-2.18-15.95-4.48-23.85-6.9-10.47-3.21-20.89-6.58-31.33-9.87-4.15-1.31-6.58-3.82-5.81-8.46.68-3.86 3.37-5.43 7.33-6.25Z" data-color="1"></path>
        <path fill="#ffffff" d="M80.78 103.9c.18 4.55-2 6.83-5.23 7.79-4 1.18-6.73-1.15-8.5-4.41-3.17-5.83-6.06-11.8-9.1-17.69-5.56-10.76-11.18-21.49-16.7-32.27-1.44-2.79-1.8-5.73.11-8.51 1.71-2.47 4.24-3 7-2.71a6.72 6.72 0 0 1 5.38 3.94c8.74 16.76 17.463 33.527 26.17 50.3.476 1.133.77 2.335.87 3.56Z" data-color="1"></path>
        <path fill="#ffffff" d="M143.76 92.61a4.435 4.435 0 0 1-3.79-2.62c-1.18-2.31-.4-4.18 1.24-5.84 5.24-5.333 10.5-10.633 15.78-15.9 5.87-5.87 11.81-11.67 17.62-17.59 2.44-2.48 5.07-3.6 7.76-.93 2.69 2.67 1.39 5.35-1 7.74a8867.743 8867.743 0 0 0-32.74 32.75 6.378 6.378 0 0 1-4.87 2.39Z" data-color="1"></path>
        <path fill="#ffffff" d="M199.22 65.36c.08 1.72-1.15 3.07-2.46 4.38-11.033 11.04-22.067 22.077-33.1 33.11-2.29 2.29-4.92 3.14-7.38.48s-1.54-5.14.76-7.44c11.16-11.147 22.31-22.303 33.45-33.47 1.63-1.63 3.46-2.67 5.79-1.6a4.532 4.532 0 0 1 2.94 4.54Z" data-color="1"></path>
    </g>
</svg>