<svg preserveAspectRatio="xMidYMid meet" data-bbox="3.326 0.085 225.301 213.623" xmlns="http://www.w3.org/2000/svg" viewBox="0 0 232 217" height="217" width="232" data-type="ugc" role="presentation" aria-hidden="true" aria-labelledby="svgcid-72kxmrabt2yg"><title id="svgcid-72kxmrabt2yg"></title>
    <g>
        <path stroke-width="5" stroke="#ffffff" d="M23.28 175.906c-.005.772.037 1.308.112 1.678.03.152.061.251.084.31.157.038.537.081 1.315-.022l.084-.011.084-.006a49.595 49.595 0 0 1 6.381 0l6.496.419-5.106 4.037a222.184 222.184 0 0 1-20.095 14.159l-.047.029-.047.027c-.906.512-1.88.893-2.893 1.13-1.074.284-2.13.236-2.93.158-.39-.038-.777-.09-1.112-.135l-.074-.01c-.37-.05-.675-.09-.96-.114-.522-.045-.765-.015-.861.008a.879.879 0 0 0-.04.075c-.282.606-.387 1.481-.33 2.831.022.542.065 1.089.113 1.689l.032.409c.055.71.11 1.489.114 2.269.122 1.904.12 3.815-.006 5.719l-.006.09-.012.09c-.137.984-.127 1.617-.059 2.013.06.344.146.427.158.438l.001.001c.107.107.693.493 3.011.493 70.001-.073 140.002-.11 210.003-.11 2.424 0 4.842.038 7.238.075h.011c1.565.025 3.121.049 4.673.063l.015-16.026c-.246.014-.502.032-.772.05-.483.034-1.012.07-1.609.096-1.777.077-4.004.022-6.139-1.193l-.005-.003-.807-.456c-15.473-8.743-30.909-17.466-46.221-26.46l-.055-.032-.053-.035a12.042 12.042 0 0 0-6.463-1.979c-8.02.049-15.995.039-23.961.029-10.076-.013-20.137-.025-30.254.081-2.278.027-4.386-.249-6.378-1.084-2.005-.84-3.722-2.173-5.329-4.007M23.28 175.906l24.823-56.136c-.521-.563-.797-.948-.935-1.204a1.345 1.345 0 0 1-.075-.161M23.28 175.906v-.001l.002-.298c.019-2.574.032-4.331.173-5.626.15-1.37.399-1.656.442-1.7.03-.031.278-.28 1.6-.43 1.306-.147 3.118-.151 5.833-.151h60.086l-3.746-4.17a440.919 440.919 0 0 1-3.9-4.415c-1.246-1.423-2.405-2.748-3.518-3.974-2.34-2.587-4.677-5.177-7.016-7.769-8.33-9.231-16.674-18.478-25.132-27.601L23.28 175.906Zm77.301-13.217-.002-.001 1.881-1.648-1.878 1.651-.001-.002Zm0 0c-10.776-12.26-21.739-24.328-32.727-36.426-2.618-2.882-5.238-5.765-7.856-8.654l-.002-.001c-1.855-2.049-3.107-3.416-4.118-4.299-1.022-.893-1.401-.924-1.473-.926-.09-.003-.49.017-1.615.836-1.077.785-2.414 1.988-4.374 3.752l-.164.147-.006.005c-.572.512-.888.871-1.055 1.118-.051.075-.08.129-.098.164m0 0a.364.364 0 0 1-.014-.045m.014.045a.36.36 0 0 0-.019.044m.005-.089a.033.033 0 0 0-.002-.008l.002.008Zm0 0c0 .009.002.025 0 .046a.274.274 0 0 1-.005.043m0 0a.04.04 0 0 0-.002.007l.002-.007ZM3.734 197.53l-.002.002.002-.002Zm19.647-19.671c.001-.001.014.004.034.017-.025-.009-.035-.016-.034-.017ZM198.67 197.55h3.116l-.676-3.042c-.279-1.258-.972-2.13-1.826-2.69a5.491 5.491 0 0 0-.974-.498c-.217-.088-.284-.112-.334-.13-.044-.016-.075-.027-.183-.073l-.007-.003-.007-.002c-2.94-1.222-5.878-2.437-8.814-3.65-6.841-2.828-13.667-5.649-20.466-8.542l-.053-.023-.054-.02a16.763 16.763 0 0 0-6.764-1.027H57.2c-.142 0-.358-.005-.613-.012-.545-.013-1.264-.031-1.797-.01-.883.037-2.131.174-3.253.858l-.012.008c-4.825 2.982-9.602 6.096-14.695 9.415-2.396 1.562-4.862 3.17-7.436 4.83l-7.129 4.601h8.485l167.92.01Z" fill="none"></path>
        <path stroke-width="5" stroke="#ffffff" d="m126.253 120.515-3.222.964 1.852 2.808c1.255 1.901 2.288 3.466 3.236 4.638.966 1.194 2.019 2.21 3.413 2.819 1.399.61 2.846.682 4.34.572 1.351-.099 2.987-.372 4.923-.694l.455-.076c2.189-.363 4.342-.752 6.473-1.138 6.154-1.112 12.125-2.192 18.247-2.512l.046-.002.046-.004a9.942 9.942 0 0 1 7.02 2.083 3839.309 3839.309 0 0 0 18.966 14.882c7.753 6.057 15.503 12.112 23.234 18.27l.001.001c1.545 1.23 2.71 2.461 3.359 3.751.603 1.198.816 2.544.281 4.258l-.002.007c-.417 1.351-1.109 2.155-1.978 2.704-.936.591-2.222.971-3.911 1.159l-.012.002c-1.112.129-1.83-.346-3.633-1.626a3427.214 3427.214 0 0 0-10.205-7.208c-7.697-5.422-15.372-10.829-22.954-16.389l-.007-.005-.006-.005c-2.283-1.651-4.623-2.795-7.216-3.151-2.609-.358-5.226.116-8.006 1.281l-.009.004c-9.473 4.018-18.635 7.893-28.538 9.576-9.204 1.53-16.831-.361-23.056-7.127l-.006-.006c-3.272-3.534-6.808-6.851-10.266-10.095-1.366-1.282-2.72-2.552-4.04-3.82-4.725-4.534-9.15-9.146-12.773-14.54v-.001c-2.856-4.247-3.591-7.636-2.994-10.736.62-3.22 2.762-6.61 6.704-10.629l.006-.006c1.689-1.735 4.085-2.026 6.52-.978 5.54 2.384 11.252 3.822 16.885 4.993 2.134.443 4.225.843 6.293 1.239 3.489.667 6.913 1.322 10.365 2.152 2.374.574 4.091 1.124 5.285 1.989 1.019.738 1.785 1.799 1.97 3.89.158 1.814-.232 2.866-1.04 3.716-.953 1.002-2.751 2.004-6.046 2.99Z" fill="none"></path>
        <path stroke-width="5" stroke="#ffffff" d="M66.519 66.32h.035A16.3 16.3 0 0 1 82.61 83.097v.034c-.148 9.46-7.33 16.392-17.048 16.26a16.546 16.546 0 0 1-16.049-17.005 16.542 16.542 0 0 1 17.005-16.067Z" fill="none"></path>
        <path fill="#ffffff" d="M138.32 73.15c0 1.29-1.07 1.6-1.89 2.08-5.42 3.18-10.9 6.27-16.26 9.54-2.06 1.26-3.06.85-4.22-1.2A3098.397 3098.397 0 0 0 95.04 47.5c-1.12-1.91-.75-2.72 1.11-3.74 5.65-3.12 11.21-6.39 16.74-9.72 1.62-1 2.48-.89 3.47.84 7 12.2 14.06 24.35 21.09 36.53.33.57.59 1.18.87 1.74Zm-7-4.69c-.16-.3-.43-.89-.75-1.44-4.447-7.74-8.903-15.47-13.37-23.19a4.311 4.311 0 0 0-1.57-1.79c-4.51-2-9-1.08-11.88 2.39-2.41 2.86-2.85 6.65-.16 10.58a135.107 135.107 0 0 1 10.67 18.43c1.92 4 5.31 4.66 8.53 4.69 3.56.04 8.39-6 8.48-9.67h.05Z"></path>
        <path fill="#ffffff" d="M143.72 47.05c-1.48.12-1.79-1.17-2.34-2.11-6.24-10.72-12.42-21.48-18.72-32.16-1.14-1.94-.59-2.74 1.18-3.71 4.78-2.63 9.53-5.32 14.15-8.22 2.09-1.31 3.13-.93 4.29 1.09 6.13 10.78 12.35 21.51 18.54 32.25.65 1.14 1.55 2.25-.25 3.27-5.32 3-10.6 6.11-15.89 9.17-.29.18-.57.28-.96.42Zm11.7-15.1c-.59-1.14-1.14-2.31-1.79-3.43-3.27-5.73-6.58-11.44-9.87-17.15-2.88-5-5.93-6-10.62-3.29-5 2.85-5.81 5.94-2.81 11.2 3.19 5.59 6.73 11 9.5 16.79 1.74 3.66 5 5 7.75 4.28 3.76-.91 7.79-3.04 7.84-8.38v-.02Z"></path>
        <path fill="#ffffff" d="M160.4 55.77c2-.2 2.3 1.16 2.83 2.08 5.16 8.87 10.22 17.8 15.43 26.63 1.14 1.93.78 2.89-1.07 3.9-3.92 2.14-7.83 4.32-11.6 6.71-1.91 1.21-2.79.85-3.84-1-5.21-9.22-10.54-18.37-15.82-27.55-.39-.68-1.33-1.64-.51-2.15 4.91-3.05 9.94-5.91 14.58-8.62Zm7 16 .16.17c-.71-3.14-2.57-5.78-4.38-8.24-2.27-3.06-5.33-2.84-8.6-.84-3.27 2-4.25 4.63-2.63 7.75a179.624 179.624 0 0 0 9.92 17.18c2 3 5.23 3 8.49 1.07 3.1-1.84 4.48-4.42 3-7.55-1.67-3.36-3.17-6.9-6-9.55l.04.01Z"></path>
        <path stroke-width="5" stroke="#ffffff" d="M113.108 62.751a4.807 4.807 0 0 1-1.358-3.372 4.886 4.886 0 0 1 4.415-4.737 5.018 5.018 0 0 1 4.865 4.704 4.92 4.92 0 0 1-4.651 4.862 4.81 4.81 0 0 1-3.271-1.457Z" fill="none"></path>
        <path stroke-width="5" stroke="#ffffff" d="m145.842 23.543.009-.09c.17-1.787-1.698-3.894-4.015-3.824l4.006 3.914Zm0 0-.002.09m.002-.09-.002.09m0 0a3.958 3.958 0 0 1-3.953 3.867h-.091m4.044-3.868-4.044 3.868m0 0-.09.007m.09-.007-.09.007m0 0c-1.61.119-3.79-1.517-3.76-4.728m3.76 4.728-3.76-4.728m0 0c.155-1.016.538-1.727 1.041-2.196.512-.476 1.372-.909 2.849-.954l-3.89 3.15Z" fill="none"></path>
        <path stroke-width="5" stroke="#ffffff" d="M165.2 73.692a15.1 15.1 0 0 0-1.505-.54l1.505.54Zm0 0c.095.469.192.938.292 1.407a3.012 3.012 0 0 1-1.571 3.27 3.01 3.01 0 0 1-3.577-.618 2.835 2.835 0 0 1-.734-1.66 2.837 2.837 0 0 1 .43-1.77l.03-.048.028-.048c.433-.754.9-1.058 1.342-1.195.5-.155 1.235-.174 2.254.121l1.506.541Z" fill="none"></path>
    </g>
</svg>