<svg preserveAspectRatio="xMidYMid meet" data-bbox="0.547 0.82 130.641 180.599" xmlns="http://www.w3.org/2000/svg" viewBox="0.547 0.82 130.641 180.599" height="182" width="132" data-type="color" role="presentation" aria-hidden="true" aria-labelledby="svgcid--ysyxmvgcfrk2"><title id="svgcid--ysyxmvgcfrk2"></title>
    <g>
        <path fill="#ffffff" d="M63.11 91.05c-9.61 0-19.23-.18-28.84.07-4.45.12-6-1.65-5.73-5.85.2-3.477.2-6.963 0-10.44-.27-4.4 1.7-5.79 5.93-5.67 7.95.23 15.91.15 23.87 0 1.61 0 4.1 1.32 4.54-2.1.44-3.42-1.23-4.1-4-4.79-13-3.25-21.2-11.69-23.49-24.76-2.29-13.07 2.31-24 13.57-31.33 11-7.13 22.69-7.14 33.74-.07 11.05 7.07 15.79 17.88 13.79 30.79s-9.86 21.58-22.53 25.07c-3.92 1.09-5.34 2.33-5.12 6.48.38 6.89 0 7-6.77 7-7.79 0-15.59.24-23.37-.08-4.37-.19-3.76 2.42-3.84 5.08-.08 2.66 0 4.62 3.81 4.58 19.23-.2 38.46-.1 57.69-.09 6.74 0 6.83.11 6.85 7.06 0 3.15-.12 6.3 0 9.44.18 3.85-1.53 5.36-5.33 5.3-8.29-.13-16.58.15-24.86-.12-3.87-.13-4.17 1.66-4.19 4.76-.02 3.1.36 4.79 4.19 4.66 8.45-.29 16.91-.17 25.36-.06 18 .22 31.76 13.51 32.76 31.43.94 16.78-11.94 31.67-29.42 33.51-6.275.553-12.582.647-18.87.28-6.75-.29-10.47-4.66-10.85-11.8-.3-5.75-1.77-7.06-7.18-6.77-3.5.19-4.89 2-5.12 5.36-.66 10.23-4.06 13.36-14.39 13.32-5.46 0-10.93.3-16.39-.44C12.21 178.61-.37 163.76.6 147.32c1-17.54 14.55-30.94 31.83-31.31 8.78-.19 17.57-.2 26.35 0 3.37.08 4.11-1.08 4.1-4.24-.06-12.24-2-11.48 11.88-11.46 5.64 0 11.28-.13 16.91 0 3.36.1 5.46-.08 5.38-4.58-.06-4.12-1.43-4.88-5.13-4.79-9.59.27-19.21.11-28.81.11Zm2.71 31c-10.77 0-21.54-.17-32.31 0-15.28.3-26.55 11.64-26.57 26.43-.02 14.79 11.16 26 26.54 26.35 4.14.11 8.28 0 12.42 0 6.48 0 7.14-.66 7.57-7 .52-7.72 4.37-11.42 12-11.52 8.47-.12 12.34 3.48 12.85 12.16.17 3 .54 6 4.24 6.16 7.43.22 15 1.08 22.28-.61 13.25-3.07 21.37-15.32 19.82-29.22-1.41-12.63-12.45-22.48-26-22.79-10.98-.12-21.92.04-32.85.04h.01Zm.16-114.86a24.72 24.72 0 0 0-25 24.79 24.87 24.87 0 0 0 49.73.18A24.752 24.752 0 0 0 65.97 7.22l.01-.03Z" data-color="1"></path>
        <path fill="#ffffff" d="M50.27 148.65c0 7 0 7.14-6.69 7.72-2.37.2-2.81 1.29-2.55 3.15.74 5.38-2.14 6.68-6.77 6.18a17.494 17.494 0 0 0-3.47 0c-3.79.36-5.75-1.27-5.37-5.11.32-3.2-.78-4.54-4.1-4.2-3.76.39-5.55-1.41-5.21-5.28a29.334 29.334 0 0 0 0-5c-.28-3.72 1.12-5.78 5.09-5.32 3.07.35 4.65-.54 4.22-4-.52-4.17 1.71-5.66 5.64-5.31 1.484.135 2.976.135 4.46 0 4-.34 5.87 1.24 5.55 5.42-.11 1.53-1 3.58 2.18 3.93 7.04.82 7.02 1 7.02 7.82Zm-17.24 10.76c1.82 0 2-1.29 1.8-2.43-.64-5 1.14-7.62 6.55-7 1.05.13 2.53.3 2.55-1.46.02-1.76-1.39-1.7-2.49-1.57-4.79.58-7.31-1-6.61-6.27.16-1.21.35-2.93-1.73-2.8-1.75.11-1.4 1.69-1.29 2.69.56 5.11-1.79 7-6.66 6.38-1.09-.13-2.61-.23-2.7 1.38-.12 2.08 1.71 1.77 2.87 1.64 5.09-.53 7 1.83 6.48 6.68-.1 1.08-.26 2.4 1.23 2.76Z" data-color="1"></path>
        <path fill="#ffffff" d="M112.57 148.74c.27 3.38-1.59 4.49-4.77 4.53-3.39 0-4.66-1.54-4.63-4.8.03-3.26 1.45-4.7 4.79-4.65 3.34.05 4.81 1.57 4.61 4.92Z" data-color="1"></path>
        <path fill="#ffffff" d="M98.66 153.28c3.36-.26 4.59 1.49 4.56 4.73-.03 3.24-1.46 4.71-4.79 4.66-3.33-.05-4.63-1.58-4.65-4.84-.03-3.43 1.6-4.78 4.88-4.55Z" data-color="1"></path>
        <path fill="#ffffff" d="M98.74 143.83c-3.29.35-4.92-1-5-4.46-.08-3.46 1.33-4.76 4.74-4.75 3.07 0 4.66 1.07 4.69 4.28.03 3.21-.72 5.29-4.43 4.93Z" data-color="1"></path>
        <path fill="#ffffff" d="M93.79 148.52c.42 3.35-1.23 4.76-4.57 4.74-3 0-4.65-1-4.64-4.33 0-3.12.74-5.11 4.37-5.1 3.22 0 5.16 1.04 4.84 4.69Z" data-color="1"></path>
        <path fill="#ffffff" d="M69.11 23.72c-.52 3.47-.12 5.48 3.19 6.65 4.13 1.46 6 5.18 6 9.45a10.2 10.2 0 0 1-5.82 9.65c-1.56.81-3.42 1.09-4.33 3-.28.57-1.78 1.23-2 1-3.29-2.71-7.38-2.62-11.18-3.64-2.25-.6-2.27-9.57-.14-10.89 2.47-1.54 4-.32 4.84 2.17.4 1.2-.56 3.54 2 3.07 2.12-.4 1-2.43 1.2-3.74.47-3.23-.24-5.11-4-6.37-7.8-2.6-9.22-12.84-3-18.16 2.7-2.33 6.58-4.51 9.1-4.83 4.08-.53 9.08 1.73 12.75 4.21 1.9 1.29 1 5.61.26 8.52a2.52 2.52 0 0 1-2.72 1.74c-1.53 0-2.33-.93-2.94-2.23-.61-1.3.72-4.1-2-3.61-2.72.49-.51 3.19-1.21 4.01Zm.24 12v9c3-3.87 3.67-6.25 0-9.03v.03Zm-6.69-15c-3.91 2.52-3.88 4.8 0 7v-7Z" data-color="1"></path>
    </g>
</svg>