<svg preserveAspectRatio="xMidYMid meet" data-bbox="0.953 0.851 261.667 190.959" xmlns="http://www.w3.org/2000/svg" viewBox="0.953 0.851 261.667 190.959" height="192" width="263" data-type="color" role="presentation" aria-hidden="true" aria-labelledby="svgcid--ghn3f56q3l2s"><title id="svgcid--ghn3f56q3l2s"></title>
    <g>
        <path fill="#ffffff" d="M262.62 118.13c-2.12 4.92-5 8.95-11 9.33-1.79.11-2.38 1.54-3.15 2.82-9.4 15.74-23.47 25.38-40.71 30.69-3.59 1.1-5 2.4-4.22 6.48a124.586 124.586 0 0 0 4.28 17.82c.6 1.74 1.38 3.73-1 4.62-2.65 1-3.37-1.11-4.09-3.06-4.93-13.33-5.65-27.14-4.79-41.14.11-1.87.52-3.88 3-3.69 2.48.19 2.54 2.15 2.36 4.09a41.769 41.769 0 0 0-.19 10.36c16.36-3 34.36-16.16 41-30.25l-32.74-9.89a14.96 14.96 0 0 1-1.92-.5c-5.19-2.35-8.79-2.58-12.73 3.42-4.86 7.4-13.34 8.88-21.87 6.44-14-4-27.92-8.3-41.87-12.46a8.794 8.794 0 0 1-6-5.44c-.37-.92-.74-1.84-1.09-2.77-1.44-3.81-3.85-8.75-7.42-8.26-3.57.49-6.48 5.28-8.68 9-1.32 2.22.56 3.33 2.34 4 3.4 1.3 6.88 2.38 10.25 3.75 1.13.46 3.48.38 2.46 2.73-.56 1.29-.31 3.26-3 2.93-4-.49-2.5 3.46-3.38 5.33-.79 1.69-1.8 4 1 5.58a13.286 13.286 0 0 0 7.54 2c1.69-.13 3 .51 3.14 2.38.18 2.25-1.41 2.79-3.19 2.92a13.793 13.793 0 0 1-8.19-1.57c-2.24-1.33-3.12-.36-3.11 1.68 0 3.74-1.92 6.41-4 9.29-3.65 5.14-2.8 9.22 3 11.61 14.31 5.87 29 6.16 43.7 1.3 3.24-1.08 5.2-4 7.22-6.65 3.4-4.48 6.35-9.35 11-12.72 1.65-1.18 3.57-2.48 5.16-.19 1.38 2-.08 3.25-1.74 4.4-4 2.79-6.72 6.86-9.4 10.83-4.48 6.71-10.43 10.91-18.58 11.71-3 .29-3.95 1.63-4 4.76-.07 6.69 1.62 13.61-2 20h-3c-2.07-4.69.22-9.39 0-14.12-.39-9.44-.12-9.39-9.42-9.69-8-.26-15.87-1.37-22.92-5.52-6.39-3.77-8.82-10-4.88-16 3.76-5.66 4.59-11.84 6.07-18a34.443 34.443 0 0 1 1.18-4.81c1.92-4.76 1.75-7.92-4.3-9.62-4.6-1.28-5.79-6.13-3.88-10.7a18.821 18.821 0 0 1 4.54-5.85c2.91-2.89 6.09-5.47 3.89-10.48-.6-1.35.46-3.52 1-5.25 1.82-6.17 3.93-12.27 5.55-18.5 1.14-4.34 2.64-8.15 7.47-9.58-5.41-6.09-5.42-6.11 1.29-10.77 15-10.39 30.95-18.53 49.45-20.46 28.89-3 51.07 8.29 66.84 32.17a74.003 74.003 0 0 1 12.1 48.17c-.12 1.46-.7 3 .8 4.12 2.51 1.84 3.53 4.64 4.78 7.3l.05 3.91Zm-11.15-14c.7-7.53.75-14.64-.91-21.59-6.27-26.39-20.86-45.85-47.94-53.09-26.35-7.05-49.08 3-70.38 17.55-1.16.79-1.7 1.63-.32 2.67 3.91 2.95 7 6.83 12.15 8.3 18.77 5.38 37.44 11.08 56.14 16.68 8.61 2.58 10.15 5 8.09 13.67-.53 2.23.07 3 2 3.54 13.59 4.01 27.2 8.07 41.17 12.24v.03Zm-88.34 12a16.137 16.137 0 0 0 15.76-11.43c2.42-7.55 4.44-15.24 7-22.74 1.39-4.1.32-6-3.79-7.21-16.37-4.72-32.73-9.5-49-14.59-4.4-1.38-6 0-7 4-1.64 6.22-3.43 12.43-5.61 18.47-1.48 4.12-.5 7.06 2.77 9.54 4.36 3.28 7.64 7.31 9 12.69.69 2.65 2.94 3.38 5.18 4 6.81 2.06 13.61 4.12 20.44 6.09 2.07.66 4.23.95 5.23 1.17l.02.01Zm85.72 5.68c3.45-.42 5.83-2.18 6.29-5.5.49-3.63-1.65-5.93-5-7-12.16-3.69-24.35-7.32-36.54-11-7.57-2.27-7.36-2.2-9.89 5.55-1.11 3.41-.36 4.49 3 5.43 11.76 3.32 23.42 7 35.12 10.51 2.28.77 4.72 1.37 7.02 2v.01Zm-76-2.37c10.94 3.15 17.34.52 22-8.25 3.66-6.94 5.3-14.54 7.05-22.1 1.81-7.89 1.8-7.79-5.92-10.07-2.47-.72-3.64-1-4.38 2.22-1.42 6.09-3.75 12-5.35 18-2.14 7.95-4.57 15.58-13.42 20.19l.02.01Z" data-color="1"></path>
        <path fill="#ffffff" d="M59.26 26.28c13.19-3.43 24.16.75 33.92 9.74 4.36 4 9.51 7.17 14.42 10.56 2.36 1.63 3.27 3.42 2.37 6.27-3.77 12-7.5 24-11.07 36-.85 2.84-2.55 3.93-5.26 4.38a3087.946 3087.946 0 0 0-34.25 5.93 6.8 6.8 0 0 1-6.65-2.12 1492.832 1492.832 0 0 0-25.09-24.82 5.6 5.6 0 0 1-1.62-6.58 1299.29 1299.29 0 0 0 10.62-34.57c1-3.3 2.41-5 6.17-4.85 5.45.27 10.93.06 16.44.06Zm1.21 66.95c10.72-1.8 20.63-3.48 30.55-5.12a3.56 3.56 0 0 0 3.16-2.69c2.96-9.78 5.96-19.55 9-29.31.6-1.92.2-2.74-2-2.47a2041.47 2041.47 0 0 1-27.09 3.22 3.7 3.7 0 0 0-3.43 3c-3.28 10.87-6.63 21.75-10.19 33.37Zm-5.55-.59c4-13 7.27-24.07 10.8-35.08.63-2-.32-2.72-1.43-3.71C57.59 47.9 50.85 42 44.22 35.98c-1.92-1.75-2.84-1.69-3.63.91a2110.98 2110.98 0 0 1-8.76 28.44 4 4 0 0 0 1.22 4.41c7.06 7.25 13.96 14.6 21.87 22.9Zm-5.87-61.78-.41 1.72c6.68 5.91 13.38 11.81 20 17.77a4.78 4.78 0 0 0 4.11 1.13l27.76-3.16c-8.47-6.15-15.9-11.59-23.39-16.92a5.23 5.23 0 0 0-2.85-.51c-8.39-.04-16.81-.03-25.22-.03Z" data-color="1"></path>
        <path fill="#ffffff" d="M14.59 34.66c2.42-.16 3.21.67 3.66 1.79a2.34 2.34 0 0 1-1.22 2.94 63.986 63.986 0 0 1-7 3.71c-2.38 1.05-2.86 2.29-1.43 4.52 1.24 1.93 2.13 4.09 3.27 6.09.88 1.55.76 2.85-.74 3.86-1.5 1.01-2.91.4-3.71-1-2.06-3.75-4-7.57-6-11.37-.57-1.11-.76-2.58.26-3.2 4.53-2.76 9.16-5.24 12.91-7.34Z" data-color="1"></path>
        <path fill="#ffffff" d="M71.48 12.56a2.789 2.789 0 0 1-2.7-2 2.3 2.3 0 0 1 1.27-2.9c4-2.22 8.12-4.35 12.22-6.46 2-1 3.12.32 3.94 1.82 1.92 3.45 3.73 7 5.58 10.45.77 1.46.91 2.93-.64 3.9-1.55.97-2.83.41-3.82-1-1.94-2.81-2.4-7.78-5.4-8.29-2.76-.47-6.1 2.57-9.2 4.05a13.1 13.1 0 0 1-1.25.43Z" data-color="1"></path>
        <path fill="#ffffff" d="M61.41 114.7c.18 2-1 2.63-2.09 3.38-12.39 8.11-14.37 7.52-20.29-6.13-.72-1.66-1.8-3.6.41-4.74 2-1 3.23.39 4.28 2.15 1.58 2.65 2 6.8 4.83 7.66 2.55.76 5.22-2.24 7.89-3.48 2.12-.98 4.13-1.56 4.97 1.16Z" data-color="1"></path>
        <path fill="#ffffff" d="M149.05 103.22c-.4 1.87-1.49 3.13-3.64 3a3.257 3.257 0 0 1-2.285-1.025 3.274 3.274 0 0 1 .135-4.624 3.27 3.27 0 0 1 2.34-.89c1.95.02 3.32 1.229 3.45 3.539Z" data-color="1"></path>
        <path fill="#ffffff" d="M164.95 107.52c-.34 1.95-1.25 3.5-3.37 3.56a3.36 3.36 0 0 1-3.58-3.13 3.364 3.364 0 0 1 3.13-3.58c2.12-.22 3.2 1.26 3.82 3.15Z" data-color="1"></path>
        <path fill="#ffffff" d="M40.66 62.1c.163-.62.367-1.227.61-1.82.68-1.64.35-4.78 3.2-3.81 2.4.81.6 3.1.13 4.67a3.89 3.89 0 0 0 1.42 4.75c.93.71 1.51 1.89.4 3-1.11 1.11-2.11.24-3-.54-1.55-1.43-3.5-2.64-2.76-6.25Z" data-color="1"></path>
    </g>
</svg>