<svg preserveAspectRatio="xMidYMid meet" data-bbox="-0.06 -0.01 79.078 78.84" xmlns="http://www.w3.org/2000/svg" viewBox="-0.06 -0.01 79.078 78.84" height="79" width="80" data-type="color" role="presentation" aria-hidden="true" aria-labelledby="svgcid-2wqx7hutnu92" style=""><defs><style>#comp-l09vfal0__item2 svg [data-color="1"] {fill: #FFFFFF;}</style></defs><title id="svgcid-2wqx7hutnu92"></title>
    <g>
        <g clip-path="url(#svgcid-2dtfmddgcpwt)">
            <path fill="#ffffff" d="M56.76 78.83c-.66-.53-1.43-1-1.58-1.91a1 1 0 0 0-.93-.87c-2.07-.29-3.64-2.18-6.21-1.31-2 .67-5.1-3.71-4.32-5.71a1.75 1.75 0 0 0-.12-1.61c-.5-1.07-.93-2.17-1.37-3.26-.14-.36-.12-.85-.55-1a2.53 2.53 0 0 1-2.13-1.82 13.083 13.083 0 0 1 0-4.5 1.83 1.83 0 0 1 .87-1.24c2.66-.93 2.09-3.84 3.51-5.51a.389.389 0 0 0 0-.36c-1.87-3.31 1.35-4.26 2.8-6a1.53 1.53 0 0 1 1.63-.47c3.09.92 5.33-.4 7.11-2.77 1.23-1.64 6.36-1.71 7.2.14a3.32 3.32 0 0 0 2.43 1.91c1.65.5 3 1.56 5.09.93s5 3.7 4.3 5.74c-.12.36-.44.68-.13 1.07 1.35 1.71 1.07 4.28 3.54 5.53 1.93 1 1.17 6.2-.82 7.16-.5.23-1 .34-1.06 1-.28 2.08-2.18 3.64-1.31 6.21.67 2-3.7 5.12-5.7 4.34a1.64 1.64 0 0 0-1.61.11c-.64.36-1.309.664-2 .91-1.23.42-2.49.66-2.86 2.24-.1.42-.74.7-1.13 1l-4.65.05Zm-9.54-29.28c-.092.202-.196.4-.31.59a15 15 0 0 0-2.76 6.65c-.07.45-.25.78-.73.73-1.13-.12-1.65.2-1.61 1.49.04 1.29.22 1.87 1.61 1.71.77-.09.68.62.78 1.11a14.56 14.56 0 0 0 2.39 5.76c.54.74.78 1.31-.09 2-.68.51-.45 1 .12 1.42.57.42 1 1.77 1.78.95 1.16-1.25 1.86-.49 2.78.1A13.471 13.471 0 0 0 56.09 74c.92.18 1.59.31 1.49 1.51-.11 1.36 1 .86 1.69.92.69.06 1.55.14 1.42-1-.1-.91.28-1.22 1.18-1.37a13.24 13.24 0 0 0 5.76-2.38c.77-.56 1.32-.68 2 .14.68.82 1.17.18 1.55-.31.38-.49 1.61-.93.78-1.65-1.33-1.15-.44-1.87.13-2.78a13.521 13.521 0 0 0 1.93-4.91c.17-1 .39-1.57 1.54-1.44 1.15.13.94-.73.87-1.35-.07-.62.46-1.76-.65-1.71-1.5.07-1.64-.78-1.85-1.85a12.639 12.639 0 0 0-2.16-5c-.57-.79-.89-1.41.07-2.11.59-.43.44-.93-.08-1.28s-1.16-1.76-1.75-1.09c-1.43 1.59-2.28.26-3.29-.3a15.799 15.799 0 0 0-4.87-1.84c-.7-.13-1.32-.21-1.19-1.13.18-1.37-.74-1.22-1.62-1.26-.88-.04-1.71.07-1.54 1.33.11.81-.41.92-1.07 1a14.88 14.88 0 0 0-6.11 2.56c-.44.32-.89.67-1.33.06-.82-1.15-1.42-.58-2.16.15-.74.73-1.1 1.28-.1 2 .19.192.355.407.49.64Z" data-color="1"></path>
            <path fill="#ffffff" d="M0 46.5c.44-.94.91-1.86 1.31-2.82.56-1.33 1.38-2.25 3-2a1 1 0 0 0 1.16-.51c1.11-1.79 3.45-2.51 3.7-5.19.19-2 5.32-3.33 6.82-1.9a2.09 2.09 0 0 0 1.9.65c2-.24 3.92.42 5.9-1 1.66-1.24 5.94 1.74 6 3.89a1.24 1.24 0 0 0 .52 1.15c1.77 1.15 2.53 3.46 5.22 3.69 2 .16 3.2 5.33 1.79 6.83a1.919 1.919 0 0 0-.64 1.71c.28 2-.43 4 1 5.94 1.29 1.72-1.51 6-3.72 6.15a1.72 1.72 0 0 0-1.47.76c-1.2 1.64-3.27 2.47-3.53 5-.21 2-5.41 3.07-6.86 1.63a1.809 1.809 0 0 0-1.72-.58c-2 .3-4-.41-6.08 1.13-1.63 1.23-5.84-1.65-6-3.78a1.48 1.48 0 0 0-.57-1.35c-1.69-1.15-2.46-3.58-5.07-3.52-.79 0-1.2-.9-1.54-1.64-.34-.74-.45-1.77-1.18-2.4v-2c.39-.79 1.61-1 1.54-2.08-.16-2.4.69-5-1.54-7L0 46.5Zm27.26-9c-.35-.88-1.25-.88-1.88-1.25-.63-.37-1-.23-1.22.41-.22.64-.5 1.24-1.53 1a13.87 13.87 0 0 0-6.44-.18c-.47.09-1.16.45-1.37-.27-.39-1.27-1-1.37-2.17-.9-1.17.47-1.34 1-.85 2 .35.77-.45 1-.91 1.28a14.35 14.35 0 0 0-4.11 3.92c-.58.87-1.07 1.66-2.26.85-.41-.29-.78-.1-.92.35-.32 1-1.72 2.18.43 2.89.81.28.34 1.05.23 1.56a13.44 13.44 0 0 0 0 6c.23 1 0 1.48-1 1.74-.69.19-.71.74-.4 1.24.31.5.38 2 1.22 1.67 1.83-.83 2.11.56 2.8 1.47a14.25 14.25 0 0 0 3.51 3.42c.75.51 1.45.94.78 2-.36.57-.1 1 .53 1.18.63.18 1.73 1.22 2 .39.76-2 2-1 3.23-.94 1.699.199 3.418.142 5.1-.17.62-.14 1.22-.3 1.41.51.34 1.39 1.11 1 2 .67.89-.33 1.6-.64.91-1.78-.32-.54-.1-.94.47-1.27a15 15 0 0 0 4.92-4.74c.25-.38.51-.9 1.06-.56 1.19.74 1.64.18 2.14-.9.5-1.08.28-1.63-.84-2-.86-.28-.36-1-.26-1.52a13.77 13.77 0 0 0 0-6.06c-.22-.89 0-1.48.92-1.8 1.18-.38.49-1.16.23-1.75-.26-.59-.18-1.65-1.08-1.17-1.55.82-1.91-.27-2.52-1.17a18.252 18.252 0 0 0-2.78-3c-.76-.83-2.76-1.13-1.35-3.12Z" data-color="1"></path>
            <path fill="#ffffff" d="M35.3 4.34c2.23 1.75 4-.61 6.07-1.08 1-.24 2-.5 2.16-1.86A1.81 1.81 0 0 1 45.3.05a38.9 38.9 0 0 1 4.32 0 1.75 1.75 0 0 1 1.56 1.07c1.06 3 4.45 2.24 6.3 3.94a.41.41 0 0 0 .37 0c.92-.57 1.88-1.09 2.92-.4 1.346.941 2.526 2.1 3.49 3.43a1.61 1.61 0 0 1 .28 1.68c-1.53 2.9 1.56 4.72 1.65 7.23a.38.38 0 0 0 .24.27 2.55 2.55 0 0 1 2.42 1.76c.268 1.553.302 3.137.1 4.7 0 .6-.39 1.34-.91 1.43-2.11.35-2.14 2.16-2.74 3.6-.6 1.44-1.94 3-.69 4.83.28.42 0 1.09-.35 1.47-1 1.11-2.08 2.17-3.16 3.21a1.54 1.54 0 0 1-1.67.36c-2.87-1.48-4.74 1.44-7.22 1.58a.56.56 0 0 0-.52.51c-.2 1.11-.7 2.09-1.89 2.22a11.64 11.64 0 0 1-5.25-.2 1.181 1.181 0 0 1-.72-.62c-.93-3.15-4.38-2.35-6.23-4-.21-.19-.46-.09-.73 0a5.86 5.86 0 0 1-6.42-3.41 1.45 1.45 0 0 1-.11-1c1.52-2.85-1.24-4.79-1.51-7.24a.7.7 0 0 0-.56-.72c-1.13-.2-2.09-.71-2.21-1.9a11.79 11.79 0 0 1 .21-5.25 1.24 1.24 0 0 1 .64-.72c3.12-.93 2.33-4.37 4-6.22.27-.3 0-.58-.11-.88-.87-2.2 1.91-6.34 4.5-6.44Zm26.77 4.55c-.54-.45-1.24-1-1.93-1.62-.69-.62-1 0-1.28.4-.69.87-1.27.54-2 0a14.49 14.49 0 0 0-6.12-2.57c-1.06-.17-1.67-.46-1.59-1.7.09-1.46-1.11-.95-1.85-1-.74-.05-1.76-.29-1.59 1 .17 1.29-.62 1.48-1.61 1.65a14 14 0 0 0-5.79 2.36c-.94.66-1.65 1.09-2.62 0-.97-1.09-1.34.24-1.79.68-.45.44-1.64.84-.69 1.59 1.39 1.1.69 1.89 0 2.91a14.49 14.49 0 0 0-2.16 5.25c-.21 1.09-.31 2.14-2 2-1.14-.11-.72 1-.7 1.66.02.66-.5 1.8.62 1.69 1.78-.18 1.85.92 2.08 2.09a14.86 14.86 0 0 0 2.5 5.73c.49.7.9 1.27 0 1.94-1.33.94-.17 1.5.4 2.1.57.6 1.19 1.6 2.11.33.46-.64.93-.74 1.62-.21a15.679 15.679 0 0 0 6.82 2.89c.83.14 1.36.39 1.21 1.35-.22 1.39.76 1.25 1.61 1.2.85-.05 2 .4 1.85-1.19-.14-1.15.59-1.26 1.4-1.41a14.89 14.89 0 0 0 6-2.43c.95-.66 1.73-1.16 2.58.08a.619.619 0 0 0 1 .24c1.31-.78 1.75-2 .86-3.25-.51-.71-.05-1.08.26-1.54a15.77 15.77 0 0 0 2.68-6.5c.14-.9.4-1.5 1.46-1.35 1.39.19 1.23-.8 1.21-1.64-.02-.84.3-2-1.25-1.84-1.07.12-1.31-.51-1.43-1.4a16.273 16.273 0 0 0-1.67-4.81c-.64-1.3-2.52-2.51-.37-4.07-.05-.03-.05-.12.17-.61Z" data-color="1"></path>
            <path fill="#ffffff" d="M8.6 32.45a33.6 33.6 0 0 1 18-18.21c.072.167.125.341.16.52-2.48 1.87-4.06 4.62-6.71 6.39a22.4 22.4 0 0 0-7.24 8.44C11.85 31.3 10.6 32 8.6 32.45Z" data-color="1"></path>
            <path fill="#ffffff" d="M23.64 74.2a7 7 0 0 1 5.81-.18 25.189 25.189 0 0 0 12.4 1.57c1.95-.23 3.18.49 4.66 1.85a33.43 33.43 0 0 1-22.87-3.24Z" data-color="1"></path>
            <path fill="#ffffff" d="M68.09 28.65c2 2.26 3.91 7.88 4.25 12.37-2.3-.12-2.31-.12-2.78-2.31a20.73 20.73 0 0 0-1.78-5.59 3.78 3.78 0 0 1 .31-4.47Z" data-color="1"></path>
            <path fill="#ffffff" d="M72.08 59.2a13 13 0 1 1-12.8-13 13.06 13.06 0 0 1 12.8 13Zm-2.48-.14a10.47 10.47 0 1 0-10.35 10.51A10.5 10.5 0 0 0 69.6 59.08v-.02Z" data-color="1"></path>
            <path fill="#ffffff" d="M31.98 52.3A12.9 12.9 0 1 1 19.1 39.41 12.92 12.92 0 0 1 31.98 52.3ZM19.1 62.77A10.4 10.4 0 0 0 29.55 52.2a10.459 10.459 0 0 0-18.04-7.393 10.46 10.46 0 0 0-2.87 7.623A10.38 10.38 0 0 0 19.1 62.77Z" data-color="1"></path>
            <path fill="#ffffff" d="M47.41 36.29a14.78 14.78 0 1 1 .769-29.55 14.78 14.78 0 0 1-.769 29.55Zm0-2.42A12.33 12.33 0 1 0 35.1 21.38a12.37 12.37 0 0 0 12.31 12.49Z" data-color="1"></path>
            <path fill="#ffffff" d="M61.99 62.06c0-.85-.59-1.31-1.35-1.62-1.14-.48-2.34-.84-3.47-1.35a3.32 3.32 0 0 1-2.14-3.42 3.08 3.08 0 0 1 2.38-3c.79-.23 1.24-.57 1.23-1.45a.73.73 0 0 1 .75-.76c.44 0 .89.21.85.62-.11 1.27.81 1.41 1.65 1.72a4.5 4.5 0 0 1 1.19.67c.6.44 1.21 1 .72 1.79s-1.23.43-1.83 0a4.13 4.13 0 0 0-3.14-.82 1.58 1.58 0 0 0-1.55 1.28 1.38 1.38 0 0 0 1 1.5c1 .4 1.95.74 2.93 1.11 1.77.69 3.08 1.72 3 3.85a3.49 3.49 0 0 1-3 3.56 1 1 0 0 0-.94 1.2.8.8 0 0 1-.85.87.68.68 0 0 1-.79-.69c.06-1.17-.77-1.34-1.59-1.6a4.8 4.8 0 0 1-2.09-1.41c-.46-.5-.88-1.06-.29-1.71.59-.65 1.17-.35 1.69.15a4.42 4.42 0 0 0 4 1.28c.87-.19 1.61-.63 1.64-1.77Z" data-color="1"></path>
            <path fill="#ffffff" d="M23.71 48.07c-.3 1-1 1.11-1.77.53a4.4 4.4 0 0 0-3.5-.93 1.51 1.51 0 0 0-1.4 1.18 1.32 1.32 0 0 0 1 1.53c1.14.5 2.34.85 3.48 1.35a3.68 3.68 0 0 1 2.55 3.8 3.4 3.4 0 0 1-2.83 3.32c-.69.18-1.2.4-1.14 1.27a.83.83 0 0 1-.84.91.738.738 0 0 1-.83-.69c0-1.22-.88-1.4-1.76-1.7a4.58 4.58 0 0 1-1.91-1.35c-.46-.51-.85-1.09-.27-1.73.58-.64 1.17-.3 1.69.19a4.35 4.35 0 0 0 3.58 1.31c.92-.1 1.86-.3 2-1.5.13-1-.52-1.57-1.36-1.91-1.09-.44-2.22-.8-3.3-1.26a3.4 3.4 0 0 1-2.32-3.33 3.16 3.16 0 0 1 2.45-3.19c.74-.22 1.11-.52 1.13-1.32a.82.82 0 0 1 .88-.85c.36 0 .78.19.76.49-.13 1.61 1.23 1.53 2.12 2 .89.47 1.49.83 1.59 1.88Z" data-color="1" style=""></path>
            <path fill="#ffffff" d="M47.85 11.82c.36 0 .76.25.74.54-.11 1.86 1.44 1.84 2.53 2.38.465.245.89.558 1.26.93a1.16 1.16 0 0 1 .15 1.75 1.09 1.09 0 0 1-1.6 0 4.83 4.83 0 0 0-3.42-1.22c-.95.07-1.91.3-2.14 1.39-.23 1.09.65 1.64 1.51 2 1.21.51 2.48.85 3.67 1.4a4 4 0 0 1 2.63 4.21 3.77 3.77 0 0 1-3.09 3.61c-.74.2-1.37.37-1.33 1.36a1 1 0 0 1-.91 1.03.86.86 0 0 1-1-1c.07-1.08-.66-1.27-1.45-1.49a5.67 5.67 0 0 1-2.55-1.51c-.57-.59-1.13-1.27-.46-2.05.67-.78 1.4-.35 2 .25a4.93 4.93 0 0 0 4.46 1.37 1.86 1.86 0 0 0 1.8-1.54 1.78 1.78 0 0 0-1.19-2c-1.33-.56-2.71-1-4-1.58a3.82 3.82 0 0 1-2.61-3.85 3.54 3.54 0 0 1 2.85-3.55c.75-.21 1.15-.49 1.15-1.3 0-.66.24-1.14 1-1.13Z" data-color="1"></path>
        </g>
        <defs fill="none">
            <clipPath id="svgcid-2dtfmddgcpwt">
                <path fill="#ffffff" d="M79.06 0v78.83H0V0h79.06z"></path>
            </clipPath>
        </defs>
    </g>
</svg>