<svg preserveAspectRatio="xMidYMid meet" data-bbox="1.494 1.508 72.77 80.162" xmlns="http://www.w3.org/2000/svg" viewBox="0 0 76 84" height="84" width="76" data-type="ugc" role="presentation" aria-hidden="true" aria-labelledby="svgcid-ktxk9erqznjw"><title id="svgcid-ktxk9erqznjw"></title>
    <g>
        <g clip-path="url(#svgcid-50e3y4-p46hzj)">
            <path stroke-miterlimit="10" stroke-width="2" stroke="#ffffff" d="M37.87 11.08c2.62 0 5.24.06 7.86 0a1.89 1.89 0 0 1 2.16 1.5 33.549 33.549 0 0 1 1.46 14.4c-.47 5-1.39 10-2 15-.14 1.12-.57 1.46-1.66 1.45H30.16c-.91 0-1.44-.13-1.65-1.24-1.63-8.18-2.86-16.32-1.87-24.56 0-.25 0-.5.07-.75 1-5.8 1-5.8 6.86-5.8h4.3Zm.14 6.53a5.938 5.938 0 0 0-6.12 5.91 6 6 0 1 0 12 .07 5.94 5.94 0 0 0-5.86-5.98h-.02Z" fill="none"></path>
            <path stroke-miterlimit="10" stroke-width="2" stroke="#ffffff" d="M64.24 49.59c1.34 3 1.46 5.61-.9 8a36.09 36.09 0 0 0-3.57 4.32 5.36 5.36 0 0 0-.48 2 6.336 6.336 0 0 0 1.81-.8c4.37-4 6.53-9 7.51-14.79.74-4.4 2-8.71 3-13.06.15-.5.33-.991.54-1.47a2.171 2.171 0 0 1 2.08 2.55c-.14 3.23-.28 6.47-.46 9.71-.24 4.36-.56 8.71-.75 13.07a6 6 0 0 1-2.15 4.52c-4.26 3.84-8.38 7.84-12.54 11.79-1.51 1.44-1.6 1.91-1.48 6.21H42.37c.29-2.1.57-4.23.86-6.35.15-.794.258-1.595.32-2.4.1-3.53 1.74-6.07 4.41-8.38 5.13-4.44 10-9.21 15-13.84.32-.33.72-.62 1.28-1.08Z" fill="none"></path>
            <path stroke-miterlimit="10" stroke-width="2" stroke="#ffffff" d="M3.68 33.68c.8 3.25 1.6 6.41 2.36 9.59.92 3.86 1.65 7.78 2.79 11.58a17.779 17.779 0 0 0 2.83 4.72 33.307 33.307 0 0 0 3.27 3.84c.33.35 1 .33 1.57.48 0-.54.11-1.24-.17-1.6a54.267 54.267 0 0 0-4.06-4.89c-2.26-2.36-2-4.88-.77-7.79.52.42 1 .72 1.35 1.07 5.85 5.44 11.7 10.87 17.51 16.35a3.91 3.91 0 0 1 1.14 2c.71 4.16 1.3 8.34 2 12.64H18.86c.06-.74.08-1.34.15-1.94a4.86 4.86 0 0 0-1.62-4.36c-4.37-4.11-8.75-8.19-13-12.37a4.87 4.87 0 0 1-1.45-2.84c-.55-7.83-.95-15.68-1.4-23.52a2.5 2.5 0 0 1 2.14-2.96Z" fill="none"></path>
            <path stroke-miterlimit="10" stroke-width="2" stroke="#ffffff" d="M20.17 51.52c-.32-3.36-.77-6.37-.84-9.4a112.79 112.79 0 0 1 .23-12.47c.26-3 2.11-5.37 4.73-7.45.12 2 .12 3.72.35 5.44.73 5.35 1.57 10.68 2.31 16a2.24 2.24 0 0 1-.37 1.67c-1.99 2.05-4.08 3.99-6.41 6.21Z" fill="none"></path>
            <path stroke-miterlimit="10" stroke-width="2" stroke="#ffffff" d="M55.39 51.33c-2.13-2-4.23-4-6.22-6a2.1 2.1 0 0 1-.36-1.67 98.451 98.451 0 0 0 2.55-20.86c0-.1.1-.2.24-.46 3 2.25 4.88 5.22 4.89 8.79 0 6.46-.5 12.91-.81 19.37a3.488 3.488 0 0 1-.29.83Z" fill="none"></path>
            <path stroke-miterlimit="10" stroke-width="2" stroke="#ffffff" d="M33.89 45.3c-2.18 4.23-.15 7.07 2.88 9.64a1.47 1.47 0 0 0 2.25 0c3.05-2.57 5-5.44 2.82-9.66l.55-.33c.58.43 1.38.73 1.69 1.31 2.6 4.83 2.09 9-1.88 12.89-4.87 4.72-3.77 4.75-8.68 0-3.95-3.84-4.44-8.1-1.81-12.9.3-.56 1.06-.86 1.61-1.28l.57.33Z" fill="none"></path>
            <path stroke-miterlimit="10" stroke-width="2" stroke="#ffffff" d="M29.41 9.26c1.91-3.23 3.89-5.89 7-7.41a3.47 3.47 0 0 1 2.64-.15c3.27 1.51 5.35 4.22 7.17 7.37a3.64 3.64 0 0 1-.72.19H29.41Z" fill="none"></path>
        </g>
        <defs fill="none">
            <clipPath id="svgcid-50e3y4-p46hzj">
                <path fill="#ffffff" d="M75.74 0v83.18H0V0h75.74z"></path>
            </clipPath>
        </defs>
    </g>
</svg>