<svg preserveAspectRatio="xMidYMid meet" data-bbox="0.023 0.018 367.518 230.287" xmlns="http://www.w3.org/2000/svg" viewBox="0.023 0.018 367.518 230.287" height="231" width="368" data-type="color" role="presentation" aria-hidden="true" aria-labelledby="svgcid-7gfdpjfzfr68"><title id="svgcid-7gfdpjfzfr68"></title>
    <g>
        <g clip-path="url(#svgcid-5rha80x0w0lg)">
            <path fill="#ffffff" d="M73.23 99.52c22.6 0 45.2.08 67.8-.06 3.88 0 5.46 1.26 6.25 5.12 2.37 11.57 2.55 11.53 14.55 11.52h59.84c5.15 0 10.63-7.48 9.13-12.44-11.09-36.64 8.31-74.1 44.74-86.12 2.85-.93 4.3-2.09 5-5.14 1.74-7.64 8.16-12.37 16-12.38a16.002 16.002 0 0 1 15.9 12.58c.64 2.94 2 4 4.63 4.85a68.498 68.498 0 0 1 44.84 86.38c-.91 2.88-.68 4.64 1.45 7a16.433 16.433 0 0 1 1.13 20.491 16.43 16.43 0 0 1-19.74 5.609c-2.92-1.28-4.62-.76-7 1a68.58 68.58 0 0 1-83.11-.37c-2.2-1.69-3.89-2.56-6.52-.79a7.68 7.68 0 0 1-5.23 1.24c-5.38-1.1-8.59 2.06-12.17 5.11a392.522 392.522 0 0 1-39.62 29.47c-2.67 1.75-3.91 3.55-3.78 6.81.25 6 .2 12 0 18-.11 3.28 1.16 4.53 4.35 4.38 2.66-.14 5.33-.07 8 0 4.39.16 6.76 2.5 6.86 6.88.11 4.83.15 9.66 0 14.48s-2.4 7-7.11 7.09c-7.82.1-15.643.1-23.47 0-5-.06-7.26-2.17-7.2-7.41.05-3.87-1.5-4.78-5-4.76-23.333.1-46.633.1-69.9 0-3.45 0-5.15.76-5.13 4.7 0 5.49-2.15 7.42-7.65 7.47-7.653.08-15.32.08-23 0-4.82-.07-7-2.24-7.15-7-.15-4.76-.13-9.32 0-14 .11-5.08 2.26-7.18 7.33-7.43 11.16-.56 10.38-.63 11.38-11.51 1-11.21-2.75-18.68-11.49-25.81-15.84-12.91-30.57-27.2-45.73-40.94-1.88-1.7-3.66-3.31-6.51-3-2.37.23-3-1.49-3.35-3.47-.64-3.77-1.38-7.53-2.08-11.29-1-5.64-.7-6.17 4.92-6.18 21.12-.04 42.24-.04 63.36 0l4.48-.08Zm159.15-14.07a60.59 60.59 0 0 0 2.66 16.35c.89 2.95 2.18 3.73 5.26 3.6 13.41-.55 21.39 11.2 16 23.62-1.17 2.69-.45 3.76 1.5 5.25 22.35 17.13 55 17.17 77.19.11 2-1.5 2.7-2.47 1.44-5.16-5.79-12.32 2.58-24.76 16.07-23.93 3.29.2 4.57-.57 5.53-3.76a64.57 64.57 0 0 0-41-79.45c-3-1-4.56-1-6.15 2.3-2.82 5.9-8.12 8.73-14.61 8.68-6.27-.06-11.52-2.84-14.19-8.53-1.71-3.65-3.42-3.42-6.49-2.35-25.98 9.02-43.34 33.4-43.21 63.27ZM15.99 120.54c19 17.15 36.77 33.17 54.46 49.28 1.83 1.67 3.77 1.83 5.94 1.82h104.27c2.48.03 4.907-.718 6.94-2.14a510.685 510.685 0 0 0 41.2-30.64c2.85-2.35 3.36-3.75.32-6.32a11.712 11.712 0 0 1-3.93-8.41c-.15-3.22-1.73-3.63-4.47-3.62-22.27.06-44.54 0-66.81 0H51.71c-11.42.04-22.83.03-35.72.03Zm112.57 55.58c-16.81 0-33.61.07-50.41-.06-3.19 0-4.43.81-4.31 4.17.23 6.32.11 12.65 0 19-.05 4.38-2.32 6.78-6.77 6.91-2.5.07-5 .11-7.49 0-2.93-.11-4.28 1.11-4.19 4.11.12 3.83.14 7.66 0 11.48-.11 3 1.23 4.16 4.16 4.11 6.65-.09 13.31-.17 20 0 3.33.08 4.7-.9 4.77-4.5.11-5.9 2.11-7.67 8-7.69 24.293-.047 48.58-.047 72.86 0 5.9 0 7.78 1.79 7.88 7.76.07 3.59 1.46 4.59 4.82 4.47 5.48-.21 11-.05 16.47-.05 7.61 0 7.61 0 7.62-7.53 0-11.79 0-11.79-11.54-12.13-5.39-.17-7.55-2.24-7.63-7.58-.09-5.66-.31-11.34.06-17 .28-4.3-.86-5.7-5.42-5.62-16.27.33-32.58.15-48.88.15Zm-52.69-60v.05h15.95c16.44 0 32.88-.03 49.32-.09 1.17 0 3.38.76 3.29-1a32.014 32.014 0 0 0-1.93-9.69c-.82-2.16-3.5-1.26-5.37-1.27-20.26-.06-40.517-.06-60.77 0-22.427 0-44.85.033-67.27.1-1.27 0-3.61-.43-3.61.64.066 3.3.53 6.581 1.38 9.77.62 2.45 3 1.52 4.7 1.52 21.44 0 42.877-.017 64.31-.05v.02Zm165.81 17.51a12.2 12.2 0 0 0 11.87-12.26c0-6.07-5.73-11.87-11.75-11.88a12 12 0 0 0-12.25 12.27 11.896 11.896 0 0 0 3.574 8.481 11.89 11.89 0 0 0 8.556 3.389Zm54.7-105.17a12.05 12.05 0 0 0 12.17-11.84 12.392 12.392 0 0 0-11.93-12.2 12.14 12.14 0 0 0-12.12 11.95 12 12 0 0 0 11.88 12.09Zm66.53 93.49a11.833 11.833 0 0 0-11.65-12.26 12.005 12.005 0 0 0-8.555 3.312 12.004 12.004 0 0 0-3.715 8.388 12.149 12.149 0 0 0 11.72 12.31 12 12 0 0 0 12.2-11.75Z" data-color="1"></path>
            <path fill="#ffffff" d="M158.57 63.1c-13.65 0-27.3.11-40.95-.08-3.46 0-4.78.93-4.5 4.46 1.08 13.65-1.89 18.86-18.15 17.83-3.65-.23-7.33.06-11-.08-6.35-.25-10.68-4.33-10.78-10.74-.18-12.48-.23-25 .06-37.45a15.12 15.12 0 0 1 13.32-15.09 42.84 42.84 0 0 1 13.42 0c8.36 1.39 13.28 7.4 13 16.77-.13 4.9 1.36 6 6.1 5.94 26.3-.24 52.6-.11 78.9-.11 6.7 0 6.7 0 6.7 6.57 0 12 0 12-12.19 12l-33.93-.02Zm-49.85-7.57c0-3.65-.18-7.32 0-11 .91-16.15-4.79-19.22-19.57-18.36-6.75.4-11.28 4.7-11.37 11.42-.15 12-.12 23.94 0 35.92 0 5 2.27 7.13 7.45 7.27 5.18.14 10.31.11 15.47 0 5.65-.08 7.88-2.25 8-7.85.11-5.75.03-11.58.02-17.4Zm47.93 2.92c13.15 0 26.3-.12 39.45.08 3.43 0 4.4-1.23 4.18-4.34-.18-2.62.53-5.18-3.86-5.15-26.46.187-52.923.187-79.39 0-3.74 0-3.92 1.73-3.92 4.57 0 2.84 0 5 4.1 4.9 13.17-.23 26.3-.06 39.44-.06Z" data-color="1"></path>
            <path fill="#ffffff" d="M38.2 42.51a4 4 0 0 1 2.61 2.12c8.96 13.8 17.923 27.593 26.89 41.38.9 1.39 2 2.94.38 4.45-1.49 1.35-2.85.09-4-.71-13.46-9.15-26.85-18.41-40.35-27.49-3.4-2.28-3.73-4.15-.55-6.88 4-3.47 7.82-7.21 11.73-10.82.94-.9 1.84-1.93 3.29-2.05Zm18.78 36.82c-.18-1.2-.13-1.57-.29-1.81-4.24-6.56-8.46-13.12-12.77-19.63-6.66-10.07-6.62-10-15.12-1.55-1.93 1.92-1.52 2.73.44 4.05 9.08 6.12 18.14 12.34 27.74 18.94Z" data-color="1"></path>
            <path fill="#ffffff" d="M39.03 89.01c-.35 1.87-1.57 2.36-3.28 1.81-6.45-2.08-12.89-4.21-19.33-6.32-1.4-.46-2.48-1.33-2-2.89s1.85-1.84 3.25-1.4c6.48 2.04 12.94 4.11 19.38 6.21a2.56 2.56 0 0 1 1.98 2.59Z" data-color="1"></path>
            <path fill="#ffffff" d="M63.59 49.73c.07 1.63-.47 2.56-1.81 2.81a2.17 2.17 0 0 1-2.61-1.73c-.78-2.84-1.46-5.72-2.05-8.61a2.23 2.23 0 0 1 1.55-2.74 2 2 0 0 1 2.71 1.49c.82 3 1.52 6.05 2.21 8.78Z" data-color="1"></path>
            <path fill="#ffffff" d="M278.71 90.77c0-7.73-.05-15.47 0-23.21 0-1.76-.94-4.4 2.39-4.36 3.33.04 2.28 2.69 2.29 4.44.05 9 0 17.94-.1 26.92 0 1.82 1.11 4.3-1.76 5-2.87.7-4.8-.77-6.1-3.2-3-5.55-5.9-11.14-8.87-16.7a47.006 47.006 0 0 0-6-9.17c0 8.22.06 16.44 0 24.66 0 1.73 1.12 4.54-2.15 4.53-3.11 0-2.31-2.76-2.34-4.55-.13-9-.23-17.92-.09-26.87 0-1.69-1-4.38 1.93-4.95 2.93-.57 5.15 0 6.67 2.92 4.26 8.25 8.7 16.41 13.07 24.6l1.06-.06Z" data-color="1"></path>
            <path fill="#ffffff" d="M293.48 81.2c0-4.65.15-9.31-.05-13.95-.13-3 .82-4.23 3.93-4.09 4.14.2 8.3 0 12.45.06 1.18 0 2.44 0 2.56 1.66.14 1.8-1 2.25-2.52 2.24h-3.47c-8.24 0-10 2.42-8.25 10.62.4 1.86 1.47 1.95 2.82 2 2.82.07 5.65.07 8.47.13 1.05 0 2 .29 2.07 1.6.12 1.59-.85 2-2.16 2l-2 .06c-9.12.27-9.12.27-9.18 9.2.08.828.08 1.662 0 2.49-.38 1.74.63 4.55-2.49 4.49-3.28-.07-2-2.81-2.06-4.56-.11-4.64 0-9.29 0-13.94l-.12-.01Z" data-color="1"></path>
            <path fill="#ffffff" d="M329.38 63.21h10.44c1.34 0 2.78 0 2.73 2-.05 2-1.45 1.81-2.8 1.95-8.27.82-8.27.83-8.27 9.44V96c0 1.94.14 3.76-2.65 3.59-2.79-.17-2-2.1-2-3.66 0-7.95-.27-15.92 0-23.86.12-3.84-.88-5.29-4.92-5.07-2 .11-6 1.85-6-1.83s3.91-1.51 6-1.86a46.245 46.245 0 0 1 7.47-.1Z" data-color="1"></path>
        </g>
        <defs fill="none">
            <clipPath id="svgcid-5rha80x0w0lg">
                <path fill="#ffffff" d="M367.61 0v230.28H0V0h367.61z"></path>
            </clipPath>
        </defs>
    </g>
</svg>