<svg preserveAspectRatio="xMidYMid meet" data-bbox="0 0 314 314.001" xmlns="http://www.w3.org/2000/svg" viewBox="0 0 314 314.001" height="314" width="314" data-type="color" role="presentation" aria-hidden="true">
    <g>
        <path fill="#F4FEE2" d="M157 314c86.708 0 157-70.292 157-157C314 70.291 243.708 0 157 0 70.291 0 0 70.291 0 157c0 86.708 70.291 157 157 157Zm0-67.547c49.404 0 89.453-40.049 89.453-89.453S206.404 67.546 157 67.546 67.546 107.596 67.546 157c0 49.404 40.05 89.453 89.454 89.453Z" clip-rule="evenodd" fill-rule="evenodd" data-color="1"></path>
        <path fill="#91FECF" d="m67.55 157.766-67.545.578a156.998 156.998 0 0 0 65.707 126.388l39.271-54.949c-22.473-16.09-37.185-42.329-37.434-72.017Z" clip-rule="evenodd" fill-rule="evenodd" data-color="2"></path>
        <path fill="#C0E974" d="M228.233 17.09A157.003 157.003 0 0 0 156.999 0v67.546c49.404 0 89.454 40.05 89.454 89.454 0 49.404-40.05 89.453-89.454 89.453-19.573 0-37.677-6.286-52.405-16.95l-39.565 54.738a156.996 156.996 0 0 0 203.156-16.396 156.994 156.994 0 0 0 43.859-135.548A156.998 156.998 0 0 0 228.233 17.09Z" clip-rule="evenodd" fill-rule="evenodd" data-color="3"></path>
        <path fill="#7DB8E1" d="M29.107 65.937a157 157 0 0 0-29.1 92.511l67.543-.623c-.002-.275-.004-.55-.004-.825 0-19.345 6.14-37.255 16.579-51.889L29.107 65.937Z" clip-rule="evenodd" fill-rule="evenodd" data-color="4"></path>
        <path fill="#B7F6FE" d="M106.836 8.23a157 157 0 0 0-77.833 57.854l55.063 39.111c10.827-15.217 26.298-26.9 44.345-32.983L106.836 8.23Z" clip-rule="evenodd" fill-rule="evenodd" data-color="5"></path>
    </g>
</svg>