<svg preserveAspectRatio="xMidYMid meet" data-bbox="-0.051 -0.008 77.667 88.038" xmlns="http://www.w3.org/2000/svg" viewBox="-0.051 -0.008 77.667 88.038" height="89" width="78" data-type="color" role="presentation" aria-hidden="true" aria-labelledby="svgcid--s2e9on-r7ggae"><defs><style>#comp-l09vfal0__item3 svg [data-color="1"] {fill: #FFFFFF;}</style></defs><title id="svgcid--s2e9on-r7ggae"></title>
    <g>
        <g clip-path="url(#svgcid--oyo0n25edz66)">
            <path fill="#ffffff" d="M60.16 53.45c1.8 2.79.74 4.39-1.44 5.69a45.671 45.671 0 0 0-11 9.56 40.17 40.17 0 0 1-21.13 12.88 3.65 3.65 0 0 0-2.47 1.55 1.64 1.64 0 0 1-1.45.87c-2-.1-3.29.5-3.4 2.85-.06 1-1.33 1.18-2.26 1.18H2.17c-1 0-2.26-.09-2.22-1.46.04-1.37 1.27-1.34 2.3-1.35 4.1 0 8.21-.18 12.32-.07 1.82 0 2.31-.6 2.27-2.31-.09-4-.14-8.05 0-12.08.08-2.28-.86-2.9-3-2.83-3.6.13-7.21.07-10.81 0-1.07 0-2.53.12-2.55-1.34-.02-1.46 1.45-1.34 2.5-1.35h13.84c.65 0 1.7 0 1.88.37 1 1.89 2.83 1.39 4.29 2 1.7.68 2.21 0 2.76-1.33 1.18-2.84 2.08-5.43-1.2-7.74-1.78-1.25-1.34-3.25.37-5.1-4.25 0-8-.05-11.78 0a4.37 4.37 0 0 1-3.83-1.79c-1-1.32-1.74-2.71-3.56-3.33-1.26-.43-1-1.7.28-2.17a8 8 0 0 1 2.72-.31h65.17a19.3 19.3 0 0 1 2 .09c.77.1 1.55.33 1.68 1.23.13.9-.56 1.36-1.34 1.52a3.172 3.172 0 0 0-2.21 1.86 5.35 5.35 0 0 1-5.6 3c-2.56-.2-5.14-.09-8.29-.09Zm-34 2.64c2 2.08 4 3.53 3.65 6.28-.35 2.75-1 5.54-2.92 7.34-2.21 2.06-2.4 4.29-2.41 6.94 0 2.12.61 2.68 2.64 2 6.49-2 12.39-5 17.09-10.1 2.61-2.83 5.06-5.82 8.14-8.18 1.83-1.41 3.73-2.74 5.88-4.31a4.77 4.77 0 0 0-3.82.79 63.449 63.449 0 0 0-8.95 6 41.12 41.12 0 0 1-5.09 3.65c-3.3 1.88-5.56 1-7-2.47-.69-1.71-1.18-3.5-1.91-5.18-.88-1.94-2.46-2.95-5.32-2.75l.02-.01Zm28-2.56H29.38c4.18 1.69 4.91 5.06 6 8.18 1.28 3.57 2.05 3.88 5.09 1.64 4.53-3.3 8.72-7.03 13.63-9.81l.06-.01ZM41.31 48.8H14.43c-.67 0-1.34 0-2 .05-.42 0-.91.09-1 .59a1 1 0 0 0 .84 1.09c.484.138.987.202 1.49.19h55.09c1 0 2.43.08 2.3-1.24-.11-1.1-1.55-.65-2.39-.65-9.13-.04-18.27-.03-27.45-.03Zm-21.73 27v4.27c0 .63.22 1.19 1 1.23.78.04 1.16-.56 1.17-1.29v-8.54c0-.63-.23-1.18-1-1.23-.77-.05-1.15.55-1.16 1.29 0 1.4.02 2.83.03 4.25l-.04.02Z" data-color="1"></path>
            <path fill="#ffffff" d="M41.52 41.28H22.64c-3.66 0-3.86-.2-3.87-3.82 0-5.73-1.41-11-5.57-15.16-.66-.68-1.36-1.53-.5-2.4 1-1 1.79 0 2.53.62a14.34 14.34 0 0 0 13.08 3.56 14.76 14.76 0 0 0 11.63-12.63c.046-.671.133-1.34.26-2a1.26 1.26 0 0 1 2.48.08c.19.9.3 1.82.48 2.73a14.71 14.71 0 0 0 24.21 8.49c.13-.11.24-.24.37-.35.78-.64 1.61-1.52 2.58-.48s.06 1.71-.55 2.4a18.54 18.54 0 0 0-5.46 13.63c.07 5.32 0 5.33-5.43 5.33H41.52Zm21.79-14.83c-8.93 2-15.86-.36-20.66-7.79-1.3-2-1.63-1.18-2.53.17-3.89 5.82-9.35 8.81-16.4 8.28-4-.29-3.78-.52-3.08 3.41.48 2.65 1.65 3.33 4.2 3.28 7.54-.16 15.08-.06 22.61 0h1.51c1.25.13 3.16-.37 3.1 1.54-.06 1.91-2 1.26-3.22 1.44-.25.015-.5.015-.75 0h-1c-7.88 0-15.75-.09-23.62-.1-.74 0-1.95-.38-1.88.95.07 1.33 1.25.83 2 .83 6.78 0 13.56-.07 20.35-.09h15.33c.7 0 1.81.23 1.91-.7.1-.93-1.06-.77-1.72-.94-.82-.22-1.74-.36-1.75-1.45-.01-1.09.9-1.3 1.75-1.42.85-.12 1.88-.07 2.2-1.26.53-2.02 1.07-3.93 1.65-6.15Z" data-color="1"></path>
            <path fill="#ffffff" d="M45.19 3.92a3.88 3.88 0 0 1-3.7 3.69 3.81 3.81 0 1 1 3.7-3.69Z" data-color="1"></path>
            <path fill="#ffffff" d="M73.31 19.67a3.76 3.76 0 0 1-3.62-4 3.87 3.87 0 0 1 3.82-3.6 4 4 0 0 1 3.68 3.79 3.92 3.92 0 0 1-3.88 3.81Z" data-color="1"></path>
            <path fill="#ffffff" d="M13.05 16.5a3.651 3.651 0 0 1-3.65 3.7 3.91 3.91 0 0 1-3.87-3.84 4 4 0 0 1 4-3.74 3.83 3.83 0 0 1 3.52 3.88Z" data-color="1"></path>
        </g>
        <defs fill="none">
            <clipPath id="svgcid--oyo0n25edz66">
                <path fill="#ffffff" d="M77.64 0v88.06H0V0h77.64z"></path>
            </clipPath>
        </defs>
    </g>
</svg>